<svg width="30" height="42" viewBox="0 0 30 42" fill="none" xmlns="http://www.w3.org/2000/svg">
<path d="M13.0388 0.560547C10.6379 0.560547 8.69252 2.60895 8.69252 5.13701H8.68543C8.68543 5.16688 8.67835 9.71162 4.34626 9.71162V9.71255C1.94625 9.71255 0 11.7619 0 14.289C0 16.8161 1.94625 18.8655 4.34626 18.8655C4.34892 18.8655 4.35158 18.8655 4.35512 18.8655C4.37551 18.8655 4.44818 18.8664 4.57403 18.8655C5.15365 18.8552 6.77996 18.7684 8.68543 18.1758C8.68809 18.174 8.68986 18.174 8.69252 18.173C10.0911 17.7372 11.6403 17.028 13.0388 15.8736C13.5918 15.4182 14.1209 14.8937 14.6084 14.289C15.5655 13.0992 16.3596 11.6004 16.848 9.71255C17.1723 8.46298 17.3629 7.0417 17.3771 5.42818V5.41978C17.3788 5.41231 17.3788 5.40485 17.3788 5.39738C17.3833 5.31152 17.3859 5.22474 17.3859 5.13795C17.385 2.60895 15.4397 0.560547 13.0388 0.560547Z" fill="#1B1A19"/>
<path d="M29.8646 36.4342C29.8646 34.0003 28.0602 32.0107 25.7825 31.867V31.8577H20.939C20.4152 31.8456 19.3446 31.7158 18.3706 30.8862C17.0917 29.7953 16.8648 28.2452 16.825 27.5789C16.817 27.4315 16.817 27.327 16.8179 27.2812L16.8196 25.9215C16.825 25.8907 16.8285 25.8609 16.8338 25.8301C16.8338 25.8301 16.9464 25.2188 17.2238 24.6262C18.126 22.6973 21.1943 20.2626 23.565 17.5936C23.885 17.2334 24.1535 16.9133 24.3538 16.6669C24.4469 16.5614 24.5355 16.4513 24.6188 16.3365C24.6223 16.3328 24.6259 16.3272 24.6294 16.3235C24.6294 16.3235 24.6294 16.3235 24.6286 16.3235C25.1851 15.5545 25.5166 14.5942 25.5166 13.5528C25.5166 11.0256 23.5712 8.9763 21.1703 8.9763V8.97537C21.0303 8.96604 20.8628 8.96324 20.6731 8.97537C20.417 8.99123 20.1228 9.03603 19.8064 9.13308C18.36 9.58102 17.4781 10.8549 16.8232 12.0764C16.8205 12.0811 16.8179 12.0858 16.8161 12.0895C16.5378 12.6093 16.3012 13.1198 16.0796 13.5518C16.0291 13.6489 15.9803 13.7431 15.9316 13.8318C15.313 14.9591 14.2867 16.2152 12.4769 17.3351C12.0364 17.6094 11.5472 17.8745 11.0075 18.1283C10.9073 18.175 10.8054 18.2216 10.7017 18.2683C10.6441 18.2935 10.5856 18.3187 10.5271 18.3439C10.481 18.3635 10.4358 18.384 10.3889 18.4036C10.3091 18.4372 10.2276 18.4699 10.146 18.5035C10.1203 18.5137 10.0946 18.5249 10.068 18.5352C9.97321 18.5734 9.87572 18.6108 9.77823 18.6481C9.76494 18.6528 9.75253 18.6584 9.73923 18.663C9.632 18.7032 9.52299 18.7433 9.41309 18.7834C9.40866 18.7843 9.40511 18.7862 9.40068 18.7881C9.05326 18.9122 8.68989 19.0316 8.3088 19.1464L8.12977 19.2099V19.2118L8.13686 19.209C8.13686 20.3745 8.13509 21.5411 8.1342 22.7066H8.12977V19.2118L8.12268 19.2146V27.2831C8.12445 27.3344 8.12711 27.3876 8.12977 27.4408C8.18561 28.598 8.36463 30.1574 8.89108 31.8596H8.89285C9.26951 33.0783 9.8252 34.3708 10.6415 35.6428C10.7895 35.8742 10.9632 36.1439 11.1723 36.436C11.5065 36.9138 11.931 37.4532 12.4769 37.9954C12.8341 38.3519 13.2427 38.7084 13.7133 39.049C14.7529 39.804 15.8208 40.2827 16.8232 40.5832C17.6332 40.8277 18.4007 40.9528 19.0752 41.0125C19.4155 41.0424 19.7319 41.0554 20.0191 41.0582H25.7798V41.0032C28.0593 40.8576 29.8646 38.8689 29.8646 36.4342Z" fill="#005AA5"/>
</svg>
