<svg width="146" height="44" viewBox="0 0 146 44" fill="none" xmlns="http://www.w3.org/2000/svg">
<g clip-path="url(#clip0_208_4379)">
<path d="M40.32 19.5203C40.32 19.9196 40.4472 20.212 40.7017 20.3974C40.9561 20.5686 41.3094 20.6542 41.7617 20.6542C41.9737 20.6542 42.1999 20.6328 42.4402 20.59C42.6804 20.5329 42.8854 20.4687 43.055 20.3974C43.1822 20.5401 43.2882 20.7041 43.373 20.8895C43.4578 21.0749 43.5002 21.2888 43.5002 21.5313C43.5002 22.0305 43.3023 22.4441 42.9066 22.7721C42.525 23.0859 41.8536 23.2428 40.8925 23.2428C39.7052 23.2428 38.7794 22.9718 38.1151 22.4298C37.4508 21.8736 37.1187 20.9751 37.1187 19.7342V10.1286C37.2741 10.0858 37.4791 10.043 37.7335 10.0002C37.9879 9.94316 38.2635 9.91464 38.5603 9.91464C39.1822 9.91464 39.6275 10.0287 39.896 10.2569C40.1787 10.4709 40.32 10.8702 40.32 11.455V12.8455H43.2458C43.3165 12.9882 43.3871 13.1736 43.4578 13.4018C43.5285 13.6157 43.5638 13.8439 43.5638 14.0864C43.5638 14.5428 43.4578 14.8708 43.2458 15.0705C43.0479 15.2701 42.7864 15.37 42.4614 15.37H40.32V19.5203Z" fill="#1B1A19"/>
<path d="M48.6224 22.9005C48.4811 22.9433 48.2832 22.9789 48.0288 23.0074C47.7744 23.0502 47.4917 23.0716 47.1808 23.0716C46.5447 23.0716 46.0854 22.9718 45.8027 22.7721C45.52 22.5582 45.3787 22.1517 45.3787 21.5527V15.0277C45.3787 14.6283 45.4776 14.286 45.6755 14.0008C45.8734 13.7155 46.149 13.466 46.5023 13.252C46.9688 12.9668 47.5271 12.7457 48.1772 12.5888C48.8415 12.4177 49.5341 12.3321 50.2549 12.3321C51.7249 12.3321 52.4599 12.8313 52.4599 13.8296C52.4599 14.0721 52.4245 14.2932 52.3539 14.4928C52.2832 14.6925 52.2054 14.8637 52.1206 15.0063C51.7956 14.935 51.3998 14.8993 50.9334 14.8993C50.5235 14.8993 50.1136 14.9492 49.7037 15.0491C49.2938 15.1489 48.9334 15.2844 48.6224 15.4555V22.9005Z" fill="#1B1A19"/>
<path d="M57.2995 22.9005C57.1582 22.9433 56.9603 22.9789 56.7059 23.0074C56.4515 23.0502 56.1688 23.0716 55.8579 23.0716C55.2218 23.0716 54.7625 22.9718 54.4798 22.7721C54.2112 22.5582 54.077 22.1517 54.077 21.5527V12.76C54.2183 12.7172 54.4162 12.6744 54.6706 12.6316C54.925 12.5888 55.2077 12.5674 55.5186 12.5674C56.1547 12.5674 56.607 12.6744 56.8755 12.8883C57.1582 13.1023 57.2995 13.5087 57.2995 14.1078V22.9005ZM53.8861 9.67931C53.8861 9.19439 54.0487 8.78079 54.3738 8.43849C54.713 8.0962 55.1511 7.92505 55.6882 7.92505C56.2253 7.92505 56.6564 8.0962 56.9815 8.43849C57.3207 8.78079 57.4903 9.19439 57.4903 9.67931C57.4903 10.1785 57.3207 10.5992 56.9815 10.9415C56.6564 11.2838 56.2253 11.455 55.6882 11.455C55.1511 11.455 54.713 11.2838 54.3738 10.9415C54.0487 10.5992 53.8861 10.1785 53.8861 9.67931Z" fill="#1B1A19"/>
<path d="M69.6262 20.7825C69.6262 21.4528 69.3364 21.9663 68.7569 22.3228C68.3047 22.6081 67.7464 22.8292 67.0821 22.986C66.4178 23.1572 65.6828 23.2428 64.8771 23.2428C64.1139 23.2428 63.4213 23.1572 62.7994 22.986C62.1775 22.8292 61.6404 22.5724 61.1881 22.2159C60.75 21.8593 60.4037 21.4101 60.1493 20.8681C59.909 20.3261 59.7888 19.6701 59.7888 18.8999V12.6744C59.9443 12.6316 60.1493 12.5888 60.4037 12.546C60.6581 12.5032 60.9408 12.4819 61.2517 12.4819C61.8878 12.4819 62.3401 12.5888 62.6086 12.8028C62.8913 13.0167 63.0326 13.4232 63.0326 14.0222V18.8785C63.0326 19.5203 63.1952 19.9838 63.5203 20.2691C63.8453 20.5401 64.3047 20.6755 64.8983 20.6755C65.2658 20.6755 65.5697 20.647 65.81 20.59C66.0644 20.5187 66.2552 20.4474 66.3824 20.376V12.6744C66.5238 12.6316 66.7216 12.5888 66.976 12.546C67.2305 12.5032 67.5131 12.4819 67.8241 12.4819C68.4601 12.4819 68.9195 12.5888 69.2022 12.8028C69.4849 13.0167 69.6262 13.4232 69.6262 14.0222V20.7825Z" fill="#1B1A19"/>
<path d="M78.5979 16.3541C78.5979 15.8549 78.4495 15.4841 78.1527 15.2416C77.8559 14.9992 77.4601 14.8779 76.9655 14.8779C76.6262 14.8779 76.3153 14.9207 76.0326 15.0063C75.7499 15.0919 75.4884 15.1988 75.2482 15.3272V22.9005C75.1068 22.9433 74.9089 22.9789 74.6545 23.0074C74.4001 23.0502 74.1174 23.0716 73.8065 23.0716C73.1704 23.0716 72.7111 22.9718 72.4284 22.7721C72.1457 22.5582 72.0044 22.1517 72.0044 21.5527V14.9421C72.0044 14.5713 72.0821 14.2718 72.2376 14.0436C72.3931 13.8154 72.6121 13.6014 72.8948 13.4018C73.3471 13.0737 73.9266 12.8099 74.6333 12.6102C75.3542 12.4105 76.1457 12.3107 77.0079 12.3107C78.5485 12.3107 79.7357 12.653 80.5697 13.3376C81.4177 14.0222 81.8417 14.9992 81.8417 16.2685V22.9005C81.6863 22.9433 81.4813 22.9789 81.2269 23.0074C80.9725 23.0502 80.6898 23.0716 80.3788 23.0716C79.7428 23.0716 79.2834 22.9718 79.0008 22.7721C78.7322 22.5582 78.5979 22.1517 78.5979 21.5527V16.3541Z" fill="#1B1A19"/>
<path d="M86.9968 19.1352C87.1946 19.7342 87.5409 20.1621 88.0356 20.4188C88.5303 20.6613 89.1027 20.7825 89.7529 20.7825C90.3465 20.7825 90.9048 20.7041 91.4278 20.5472C91.9508 20.376 92.3748 20.1906 92.6999 19.991C92.9119 20.1336 93.0886 20.319 93.2299 20.5472C93.3712 20.7754 93.4419 21.025 93.4419 21.296C93.4419 21.624 93.343 21.9092 93.1451 22.1517C92.9472 22.3942 92.6716 22.601 92.3183 22.7721C91.979 22.929 91.5692 23.0431 91.0886 23.1144C90.6222 23.2 90.1063 23.2428 89.5409 23.2428C88.707 23.2428 87.9367 23.1287 87.23 22.9005C86.5233 22.658 85.9155 22.3086 85.4067 21.8522C84.8978 21.3815 84.495 20.7968 84.1982 20.0979C83.9155 19.3991 83.7742 18.579 83.7742 17.6377C83.7742 16.7249 83.9155 15.9333 84.1982 15.263C84.495 14.5927 84.8837 14.0364 85.3643 13.5943C85.859 13.1522 86.4173 12.8313 87.0392 12.6316C87.6752 12.4177 88.3254 12.3107 88.9897 12.3107C89.7105 12.3107 90.3678 12.4248 90.9614 12.653C91.5692 12.8669 92.085 13.1736 92.5091 13.5729C92.9472 13.9723 93.2864 14.4501 93.5267 15.0063C93.767 15.5625 93.8871 16.1687 93.8871 16.8247C93.8871 17.2811 93.767 17.6234 93.5267 17.8516C93.2864 18.0798 92.9472 18.2296 92.5091 18.3009L86.9968 19.1352ZM89.0109 14.7282C88.4031 14.7282 87.8943 14.9207 87.4844 15.3058C87.0886 15.6766 86.8554 16.2186 86.7847 16.9317L90.8342 16.2685C90.8059 15.8977 90.6434 15.5483 90.3465 15.2202C90.0497 14.8922 89.6045 14.7282 89.0109 14.7282Z" fill="#1B1A19"/>
<path d="M101.328 14.8993C100.565 14.8993 99.9147 15.1489 99.3776 15.6481C98.8405 16.133 98.5719 16.8533 98.5719 17.8088C98.5719 18.7644 98.8264 19.4775 99.3352 19.9482C99.8581 20.4188 100.515 20.6542 101.307 20.6542C101.759 20.6542 102.155 20.5971 102.494 20.483C102.848 20.3546 103.144 20.2263 103.385 20.0979C103.625 20.2833 103.809 20.483 103.936 20.6969C104.077 20.8966 104.148 21.1462 104.148 21.4457C104.148 21.9877 103.865 22.4227 103.3 22.7507C102.734 23.0787 101.95 23.2428 100.946 23.2428C100.098 23.2428 99.3211 23.1287 98.6143 22.9005C97.9218 22.6723 97.3281 22.33 96.8334 21.8736C96.3388 21.4172 95.9571 20.8538 95.6886 20.1835C95.42 19.4989 95.2858 18.7074 95.2858 17.8088C95.2858 16.8818 95.4342 16.076 95.731 15.3914C96.0278 14.7068 96.4306 14.1363 96.9395 13.6799C97.4483 13.2235 98.0419 12.8812 98.7204 12.653C99.3988 12.4248 100.113 12.3107 100.862 12.3107C101.837 12.3107 102.6 12.489 103.151 12.8455C103.717 13.2021 103.999 13.6514 103.999 14.1933C103.999 14.4501 103.936 14.6854 103.809 14.8993C103.696 15.1133 103.554 15.2987 103.385 15.4555C103.13 15.3129 102.826 15.1846 102.473 15.0705C102.134 14.9564 101.752 14.8993 101.328 14.8993Z" fill="#1B1A19"/>
<path d="M109.412 22.9005C109.271 22.9433 109.073 22.9789 108.819 23.0074C108.564 23.0502 108.281 23.0716 107.971 23.0716C107.334 23.0716 106.875 22.9718 106.592 22.7721C106.324 22.5582 106.19 22.1517 106.19 21.5527V12.76C106.331 12.7172 106.529 12.6744 106.783 12.6316C107.038 12.5888 107.32 12.5674 107.631 12.5674C108.267 12.5674 108.72 12.6744 108.988 12.8883C109.271 13.1023 109.412 13.5087 109.412 14.1078V22.9005ZM105.999 9.67931C105.999 9.19439 106.161 8.78079 106.486 8.43849C106.826 8.0962 107.264 7.92505 107.801 7.92505C108.338 7.92505 108.769 8.0962 109.094 8.43849C109.433 8.78079 109.603 9.19439 109.603 9.67931C109.603 10.1785 109.433 10.5992 109.094 10.9415C108.769 11.2838 108.338 11.455 107.801 11.455C107.264 11.455 106.826 11.2838 106.486 10.9415C106.161 10.5992 105.999 10.1785 105.999 9.67931Z" fill="#1B1A19"/>
<path d="M115.145 22.9005C115.004 22.9433 114.806 22.9789 114.552 23.0074C114.297 23.0502 114.015 23.0716 113.704 23.0716C113.068 23.0716 112.608 22.9718 112.326 22.7721C112.043 22.5582 111.902 22.1517 111.902 21.5527V15.0277C111.902 14.6283 112 14.286 112.198 14.0008C112.396 13.7155 112.672 13.466 113.025 13.252C113.492 12.9668 114.05 12.7457 114.7 12.5888C115.364 12.4177 116.057 12.3321 116.778 12.3321C118.248 12.3321 118.983 12.8313 118.983 13.8296C118.983 14.0721 118.947 14.2932 118.877 14.4928C118.806 14.6925 118.728 14.8637 118.644 15.0063C118.318 14.935 117.923 14.8993 117.456 14.8993C117.046 14.8993 116.636 14.9492 116.227 15.0491C115.817 15.1489 115.456 15.2844 115.145 15.4555V22.9005Z" fill="#1B1A19"/>
<path d="M125.718 14.8993C124.954 14.8993 124.304 15.1489 123.767 15.6481C123.23 16.133 122.962 16.8533 122.962 17.8088C122.962 18.7644 123.216 19.4775 123.725 19.9482C124.248 20.4188 124.905 20.6542 125.697 20.6542C126.149 20.6542 126.545 20.5971 126.884 20.483C127.237 20.3546 127.534 20.2263 127.774 20.0979C128.015 20.2833 128.198 20.483 128.325 20.6969C128.467 20.8966 128.538 21.1462 128.538 21.4457C128.538 21.9877 128.255 22.4227 127.689 22.7507C127.124 23.0787 126.34 23.2428 125.336 23.2428C124.488 23.2428 123.711 23.1287 123.004 22.9005C122.311 22.6723 121.718 22.33 121.223 21.8736C120.728 21.4172 120.347 20.8538 120.078 20.1835C119.81 19.4989 119.675 18.7074 119.675 17.8088C119.675 16.8818 119.824 16.076 120.121 15.3914C120.417 14.7068 120.82 14.1363 121.329 13.6799C121.838 13.2235 122.432 12.8812 123.11 12.653C123.788 12.4248 124.502 12.3107 125.251 12.3107C126.227 12.3107 126.99 12.489 127.541 12.8455C128.106 13.2021 128.389 13.6514 128.389 14.1933C128.389 14.4501 128.325 14.6854 128.198 14.8993C128.085 15.1133 127.944 15.2987 127.774 15.4555C127.52 15.3129 127.216 15.1846 126.863 15.0705C126.523 14.9564 126.142 14.8993 125.718 14.8993Z" fill="#1B1A19"/>
<path d="M132.381 23.0716C131.745 23.0716 131.286 22.9718 131.003 22.7721C130.735 22.5582 130.6 22.1517 130.6 21.5527V8.99472C130.742 8.95193 130.94 8.90915 131.194 8.86636C131.463 8.82357 131.752 8.80218 132.063 8.80218C132.685 8.80218 133.138 8.90915 133.42 9.12308C133.703 9.33702 133.844 9.74349 133.844 10.3425V22.9005C133.689 22.9433 133.484 22.9789 133.229 23.0074C132.975 23.0502 132.692 23.0716 132.381 23.0716Z" fill="#1B1A19"/>
<path d="M139.109 19.1352C139.307 19.7342 139.654 20.1621 140.148 20.4188C140.643 20.6613 141.215 20.7825 141.866 20.7825C142.459 20.7825 143.018 20.7041 143.54 20.5472C144.063 20.376 144.487 20.1906 144.813 19.991C145.025 20.1336 145.201 20.319 145.343 20.5472C145.484 20.7754 145.555 21.025 145.555 21.296C145.555 21.624 145.456 21.9092 145.258 22.1517C145.06 22.3942 144.784 22.601 144.431 22.7721C144.092 22.929 143.682 23.0431 143.201 23.1144C142.735 23.2 142.219 23.2428 141.654 23.2428C140.82 23.2428 140.049 23.1287 139.343 22.9005C138.636 22.658 138.028 22.3086 137.519 21.8522C137.011 21.3815 136.608 20.7968 136.311 20.0979C136.028 19.3991 135.887 18.579 135.887 17.6377C135.887 16.7249 136.028 15.9333 136.311 15.263C136.608 14.5927 136.996 14.0364 137.477 13.5943C137.972 13.1522 138.53 12.8313 139.152 12.6316C139.788 12.4177 140.438 12.3107 141.102 12.3107C141.823 12.3107 142.48 12.4248 143.074 12.653C143.682 12.8669 144.198 13.1736 144.622 13.5729C145.06 13.9723 145.399 14.4501 145.639 15.0063C145.88 15.5625 146 16.1687 146 16.8247C146 17.2811 145.88 17.6234 145.639 17.8516C145.399 18.0798 145.06 18.2296 144.622 18.3009L139.109 19.1352ZM141.124 14.7282C140.516 14.7282 140.007 14.9207 139.597 15.3058C139.201 15.6766 138.968 16.2186 138.897 16.9317L142.947 16.2685C142.919 15.8977 142.756 15.5483 142.459 15.2202C142.162 14.8922 141.717 14.7282 141.124 14.7282Z" fill="#1B1A19"/>
<path d="M40.3261 34.5463C39.4957 34.5463 38.8618 34.3141 38.4244 33.8497C37.992 33.3853 37.7758 32.7257 37.7758 31.871C37.7758 31.4461 37.8421 31.0682 37.9748 30.7372C38.1075 30.4012 38.2893 30.1196 38.5202 29.8923C38.7512 29.6601 39.0264 29.4847 39.3458 29.3661C39.6652 29.2476 40.0116 29.1883 40.3851 29.1883C40.6013 29.1883 40.7979 29.2056 40.9748 29.2402C41.1517 29.2698 41.3065 29.3069 41.4392 29.3513C41.5718 29.3908 41.6824 29.4328 41.7709 29.4773C41.8593 29.5218 41.9232 29.5564 41.9625 29.5811L41.6308 30.5148C41.4736 30.4308 41.2893 30.3592 41.078 30.2999C40.8716 30.2406 40.6357 30.211 40.3704 30.211C40.1935 30.211 40.019 30.2406 39.847 30.2999C39.6799 30.3592 39.5301 30.4555 39.3974 30.5889C39.2696 30.7174 39.1664 30.8854 39.0878 31.0929C39.0092 31.3004 38.9699 31.5523 38.9699 31.8488C38.9699 32.0859 38.9944 32.3083 39.0436 32.5158C39.0976 32.7183 39.1812 32.8937 39.2942 33.0419C39.4121 33.1901 39.5645 33.3087 39.7512 33.3976C39.9379 33.4816 40.164 33.5236 40.4293 33.5236C40.5964 33.5236 40.7463 33.5137 40.879 33.494C41.0116 33.4742 41.1296 33.452 41.2328 33.4273C41.336 33.3976 41.4269 33.3655 41.5055 33.3309C41.5841 33.2964 41.6554 33.2642 41.7193 33.2346L42.0362 34.161C41.8741 34.2598 41.6456 34.3487 41.3507 34.4278C41.0559 34.5068 40.7143 34.5463 40.3261 34.5463Z" fill="#1B1A19"/>
<path d="M44.2564 33.6718C44.3645 33.6718 44.4677 33.6694 44.566 33.6644C44.6643 33.6595 44.7429 33.6521 44.8019 33.6422V32.8048C44.7576 32.7949 44.6913 32.785 44.6028 32.7751C44.5144 32.7653 44.4333 32.7603 44.3596 32.7603C44.2564 32.7603 44.1581 32.7677 44.0648 32.7825C43.9763 32.7924 43.8977 32.8147 43.8289 32.8492C43.7601 32.8838 43.706 32.9308 43.6667 32.99C43.6274 33.0493 43.6077 33.1234 43.6077 33.2124C43.6077 33.3853 43.6643 33.5063 43.7773 33.5755C43.8952 33.6397 44.0549 33.6718 44.2564 33.6718ZM44.1679 30.4407C44.4923 30.4407 44.7625 30.4778 44.9788 30.5519C45.195 30.626 45.367 30.7322 45.4947 30.8705C45.6274 31.0089 45.7208 31.1769 45.7748 31.3745C45.8289 31.5721 45.8559 31.792 45.8559 32.034V34.3314C45.6987 34.366 45.48 34.4055 45.1999 34.45C44.9198 34.4994 44.5807 34.5241 44.1827 34.5241C43.9321 34.5241 43.7036 34.5019 43.4972 34.4574C43.2957 34.4129 43.1213 34.3413 42.9738 34.2425C42.8264 34.1387 42.7134 34.0053 42.6348 33.8423C42.5561 33.6793 42.5168 33.4792 42.5168 33.242C42.5168 33.0148 42.5611 32.8221 42.6495 32.664C42.7429 32.5059 42.8657 32.3799 43.0181 32.286C43.1704 32.1921 43.3448 32.1254 43.5414 32.0859C43.738 32.0415 43.9419 32.0192 44.1532 32.0192C44.2957 32.0192 44.421 32.0266 44.5291 32.0415C44.6421 32.0513 44.7331 32.0662 44.8019 32.0859V31.9822C44.8019 31.7944 44.7453 31.6437 44.6323 31.5301C44.5193 31.4165 44.3227 31.3597 44.0426 31.3597C43.8559 31.3597 43.6716 31.3745 43.4898 31.4041C43.308 31.4288 43.1507 31.4659 43.0181 31.5153L42.878 30.626C42.9419 30.6062 43.0205 30.5865 43.1139 30.5667C43.2122 30.542 43.3178 30.5222 43.4308 30.5074C43.5439 30.4877 43.6618 30.4728 43.7847 30.463C43.9124 30.4481 44.0402 30.4407 44.1679 30.4407Z" fill="#1B1A19"/>
<path d="M49.1857 31.5227C49.0874 31.498 48.9719 31.4733 48.8392 31.4486C48.7065 31.4189 48.564 31.4041 48.4117 31.4041C48.3429 31.4041 48.2594 31.4115 48.1611 31.4264C48.0677 31.4362 47.9965 31.4486 47.9473 31.4634V34.4426H46.849V30.752C47.0456 30.6828 47.2766 30.6186 47.5419 30.5593C47.8122 30.4951 48.112 30.463 48.4412 30.463C48.5002 30.463 48.5714 30.4679 48.655 30.4778C48.7385 30.4827 48.822 30.4926 48.9056 30.5074C48.9891 30.5173 49.0726 30.5321 49.1562 30.5519C49.2397 30.5667 49.311 30.5865 49.3699 30.6112L49.1857 31.5227Z" fill="#1B1A19"/>
<path d="M50.8228 32.3675C50.8228 32.9851 51.071 33.2939 51.5673 33.2939C51.6803 33.2939 51.786 33.2791 51.8843 33.2494C51.9826 33.2198 52.0661 33.1852 52.1349 33.1457V31.3819C52.0808 31.372 52.017 31.3646 51.9432 31.3597C51.8695 31.3498 51.7835 31.3448 51.6853 31.3448C51.3953 31.3448 51.1791 31.4412 51.0366 31.6339C50.8941 31.8265 50.8228 32.0711 50.8228 32.3675ZM53.2332 33.9535C53.2332 34.5908 53.071 35.0626 52.7467 35.3689C52.4273 35.6802 51.931 35.8358 51.2577 35.8358C51.0219 35.8358 50.786 35.8136 50.5501 35.7691C50.3142 35.7296 50.0956 35.6752 49.8941 35.6061L50.0857 34.6797C50.2577 34.7489 50.4371 34.8032 50.6238 34.8428C50.8155 34.8823 51.0317 34.902 51.2725 34.902C51.587 34.902 51.8081 34.8329 51.9359 34.6945C52.0686 34.5562 52.1349 34.3783 52.1349 34.161V34.0202C52.017 34.0745 51.8941 34.1165 51.7663 34.1461C51.6435 34.1708 51.5084 34.1832 51.3609 34.1832C50.8253 34.1832 50.415 34.0251 50.13 33.7089C49.845 33.3878 49.7024 32.9406 49.7024 32.3675C49.7024 32.081 49.7467 31.8216 49.8351 31.5894C49.9236 31.3523 50.0513 31.1497 50.2184 30.9817C50.3904 30.8137 50.5993 30.6853 50.845 30.5963C51.0907 30.5025 51.3683 30.4555 51.6779 30.4555C51.8106 30.4555 51.9457 30.463 52.0833 30.4778C52.2258 30.4877 52.3658 30.5025 52.5034 30.5222C52.641 30.542 52.7713 30.5667 52.8941 30.5963C53.0219 30.621 53.1349 30.6482 53.2332 30.6779V33.9535Z" fill="#1B1A19"/>
<path d="M57.8898 32.4861C57.8898 32.7924 57.8456 33.074 57.7572 33.3309C57.6687 33.5829 57.5409 33.8003 57.3739 33.9831C57.2068 34.161 57.0053 34.2993 56.7694 34.3981C56.5385 34.4969 56.278 34.5463 55.9881 34.5463C55.7031 34.5463 55.4426 34.4969 55.2068 34.3981C54.9758 34.2993 54.7768 34.161 54.6097 33.9831C54.4426 33.8003 54.3124 33.5829 54.2191 33.3309C54.1257 33.074 54.079 32.7924 54.079 32.4861C54.079 32.1798 54.1257 31.9007 54.2191 31.6487C54.3173 31.3967 54.45 31.1818 54.6171 31.0039C54.7891 30.8261 54.9906 30.6877 55.2215 30.5889C55.4574 30.4901 55.7129 30.4407 55.9881 30.4407C56.2682 30.4407 56.5237 30.4901 56.7547 30.5889C56.9906 30.6877 57.192 30.8261 57.3591 31.0039C57.5262 31.1818 57.6564 31.3967 57.7498 31.6487C57.8431 31.9007 57.8898 32.1798 57.8898 32.4861ZM56.7694 32.4861C56.7694 32.1452 56.7006 31.8784 56.563 31.6857C56.4304 31.4881 56.2387 31.3893 55.9881 31.3893C55.7375 31.3893 55.5434 31.4881 55.4058 31.6857C55.2682 31.8784 55.1994 32.1452 55.1994 32.4861C55.1994 32.827 55.2682 33.0987 55.4058 33.3013C55.5434 33.4989 55.7375 33.5977 55.9881 33.5977C56.2387 33.5977 56.4304 33.4989 56.563 33.3013C56.7006 33.0987 56.7694 32.827 56.7694 32.4861Z" fill="#1B1A19"/>
<path d="M61.5876 33.8571C61.5876 34.0794 61.5163 34.2499 61.3738 34.3685C61.2362 34.4821 61.079 34.5389 60.9021 34.5389C60.7251 34.5389 60.5654 34.4821 60.4229 34.3685C60.2853 34.2499 60.2165 34.0794 60.2165 33.8571C60.2165 33.6348 60.2853 33.4668 60.4229 33.3532C60.5654 33.2346 60.7251 33.1753 60.9021 33.1753C61.079 33.1753 61.2362 33.2346 61.3738 33.3532C61.5163 33.4668 61.5876 33.6348 61.5876 33.8571Z" fill="#1B1A19"/>
<path d="M67.5826 33.4495V34.4426H64.1698V29.3069H65.3197V33.4495H67.5826Z" fill="#1B1A19"/>
<path d="M71.8761 32.4861C71.8761 32.7924 71.8319 33.074 71.7434 33.3309C71.655 33.5829 71.5272 33.8003 71.3601 33.9831C71.193 34.161 70.9916 34.2993 70.7557 34.3981C70.5247 34.4969 70.2643 34.5463 69.9744 34.5463C69.6893 34.5463 69.4289 34.4969 69.193 34.3981C68.9621 34.2993 68.7631 34.161 68.596 33.9831C68.4289 33.8003 68.2987 33.5829 68.2053 33.3309C68.1119 33.074 68.0653 32.7924 68.0653 32.4861C68.0653 32.1798 68.1119 31.9007 68.2053 31.6487C68.3036 31.3967 68.4363 31.1818 68.6033 31.0039C68.7753 30.8261 68.9768 30.6877 69.2078 30.5889C69.4436 30.4901 69.6992 30.4407 69.9744 30.4407C70.2545 30.4407 70.51 30.4901 70.741 30.5889C70.9768 30.6877 71.1783 30.8261 71.3454 31.0039C71.5125 31.1818 71.6427 31.3967 71.736 31.6487C71.8294 31.9007 71.8761 32.1798 71.8761 32.4861ZM70.7557 32.4861C70.7557 32.1452 70.6869 31.8784 70.5493 31.6857C70.4166 31.4881 70.225 31.3893 69.9744 31.3893C69.7237 31.3893 69.5296 31.4881 69.392 31.6857C69.2545 31.8784 69.1857 32.1452 69.1857 32.4861C69.1857 32.827 69.2545 33.0987 69.392 33.3013C69.5296 33.4989 69.7237 33.5977 69.9744 33.5977C70.225 33.5977 70.4166 33.4989 70.5493 33.3013C70.6869 33.0987 70.7557 32.827 70.7557 32.4861Z" fill="#1B1A19"/>
<path d="M73.663 32.3675C73.663 32.9851 73.9111 33.2939 74.4075 33.2939C74.5205 33.2939 74.6261 33.2791 74.7244 33.2494C74.8227 33.2198 74.9062 33.1852 74.975 33.1457V31.3819C74.921 31.372 74.8571 31.3646 74.7834 31.3597C74.7097 31.3498 74.6237 31.3448 74.5254 31.3448C74.2355 31.3448 74.0193 31.4412 73.8767 31.6339C73.7342 31.8265 73.663 32.0711 73.663 32.3675ZM76.0733 33.9535C76.0733 34.5908 75.9112 35.0626 75.5868 35.3689C75.2674 35.6802 74.7711 35.8358 74.0979 35.8358C73.862 35.8358 73.6261 35.8136 73.3903 35.7691C73.1544 35.7296 72.9357 35.6752 72.7342 35.6061L72.9259 34.6797C73.0979 34.7489 73.2772 34.8032 73.464 34.8428C73.6556 34.8823 73.8718 34.902 74.1126 34.902C74.4271 34.902 74.6483 34.8329 74.776 34.6945C74.9087 34.5562 74.975 34.3783 74.975 34.161V34.0202C74.8571 34.0745 74.7342 34.1165 74.6065 34.1461C74.4836 34.1708 74.3485 34.1832 74.2011 34.1832C73.6654 34.1832 73.2551 34.0251 72.9701 33.7089C72.6851 33.3878 72.5426 32.9406 72.5426 32.3675C72.5426 32.081 72.5868 31.8216 72.6753 31.5894C72.7637 31.3523 72.8915 31.1497 73.0586 30.9817C73.2306 30.8137 73.4394 30.6853 73.6851 30.5963C73.9308 30.5025 74.2084 30.4555 74.518 30.4555C74.6507 30.4555 74.7858 30.463 74.9234 30.4778C75.0659 30.4877 75.206 30.5025 75.3436 30.5222C75.4812 30.542 75.6114 30.5667 75.7343 30.5963C75.862 30.621 75.975 30.6482 76.0733 30.6779V33.9535Z" fill="#1B1A19"/>
<path d="M78.2017 34.4426H77.1034V30.5445H78.2017V34.4426ZM78.3049 29.418C78.3049 29.6206 78.2386 29.7812 78.1059 29.8997C77.9781 30.0134 77.8258 30.0702 77.6489 30.0702C77.472 30.0702 77.3172 30.0134 77.1845 29.8997C77.0567 29.7812 76.9929 29.6206 76.9929 29.418C76.9929 29.2155 77.0567 29.0574 77.1845 28.9437C77.3172 28.8252 77.472 28.7659 77.6489 28.7659C77.8258 28.7659 77.9781 28.8252 78.1059 28.9437C78.2386 29.0574 78.3049 29.2155 78.3049 29.418Z" fill="#1B1A19"/>
<path d="M80.3471 33.6496C80.5486 33.6496 80.6911 33.6299 80.7747 33.5903C80.8582 33.5508 80.9 33.4742 80.9 33.3606C80.9 33.2717 80.8459 33.1951 80.7378 33.1309C80.6297 33.0617 80.4651 32.9851 80.2439 32.9011C80.072 32.8369 79.9147 32.7702 79.7722 32.701C79.6346 32.6319 79.5167 32.5503 79.4184 32.4565C79.3201 32.3577 79.2439 32.2416 79.1899 32.1082C79.1358 31.9748 79.1088 31.8142 79.1088 31.6265C79.1088 31.2609 79.2439 30.9718 79.5142 30.7594C79.7845 30.5469 80.1555 30.4407 80.6272 30.4407C80.8631 30.4407 81.0892 30.463 81.3054 30.5074C81.5216 30.5469 81.6936 30.5914 81.8213 30.6408L81.6297 31.5005C81.5019 31.456 81.3619 31.4165 81.2096 31.3819C81.0621 31.3473 80.8951 31.33 80.7083 31.33C80.3643 31.33 80.1924 31.4264 80.1924 31.619C80.1924 31.6635 80.1997 31.703 80.2145 31.7376C80.2292 31.7722 80.2587 31.8068 80.3029 31.8414C80.3471 31.871 80.4061 31.9056 80.4798 31.9451C80.5584 31.9797 80.6567 32.0192 80.7747 32.0637C81.0155 32.1526 81.2145 32.2416 81.3717 32.3305C81.529 32.4145 81.6518 32.5083 81.7403 32.6121C81.8336 32.7109 81.8975 32.8221 81.9319 32.9456C81.9712 33.0691 81.9909 33.2124 81.9909 33.3754C81.9909 33.7608 81.8459 34.0523 81.556 34.2499C81.271 34.4475 80.8656 34.5463 80.3398 34.5463C79.9958 34.5463 79.7083 34.5167 79.4774 34.4574C79.2513 34.3981 79.0941 34.3487 79.0056 34.3092L79.1899 33.4125C79.3766 33.4866 79.5683 33.5459 79.7648 33.5903C79.9614 33.6299 80.1555 33.6496 80.3471 33.6496Z" fill="#1B1A19"/>
<path d="M82.7748 29.5737L83.8731 29.3958V30.5445H85.1925V31.4634H83.8731V32.8344C83.8731 33.0666 83.9124 33.2519 83.991 33.3902C84.0746 33.5286 84.2392 33.5977 84.4849 33.5977C84.6028 33.5977 84.7232 33.5879 84.8461 33.5681C84.9738 33.5434 85.0893 33.5113 85.1925 33.4718L85.3473 34.3314C85.2146 34.3858 85.0672 34.4327 84.905 34.4722C84.7429 34.5117 84.5439 34.5315 84.308 34.5315C84.0082 34.5315 83.7601 34.492 83.5635 34.4129C83.3669 34.3289 83.2097 34.2153 83.0918 34.072C82.9738 33.9238 82.8903 33.746 82.8411 33.5384C82.7969 33.3309 82.7748 33.1012 82.7748 32.8492V29.5737Z" fill="#1B1A19"/>
<path d="M87.1852 34.4426H86.0869V30.5445H87.1852V34.4426ZM87.2884 29.418C87.2884 29.6206 87.222 29.7812 87.0893 29.8997C86.9616 30.0134 86.8092 30.0702 86.6323 30.0702C86.4554 30.0702 86.3006 30.0134 86.168 29.8997C86.0402 29.7812 85.9763 29.6206 85.9763 29.418C85.9763 29.2155 86.0402 29.0574 86.168 28.9437C86.3006 28.8252 86.4554 28.7659 86.6323 28.7659C86.8092 28.7659 86.9616 28.8252 87.0893 28.9437C87.222 29.0574 87.2884 29.2155 87.2884 29.418Z" fill="#1B1A19"/>
<path d="M88.0333 32.4935C88.0333 32.2119 88.0775 31.9476 88.166 31.7006C88.2593 31.4486 88.392 31.2312 88.564 31.0484C88.736 30.8607 88.9448 30.7124 89.1905 30.6038C89.4362 30.4951 89.7163 30.4407 90.0308 30.4407C90.2372 30.4407 90.4264 30.4605 90.5984 30.5C90.7704 30.5346 90.9375 30.5865 91.0996 30.6556L90.8711 31.5375C90.7679 31.498 90.6549 31.4634 90.5321 31.4338C90.4092 31.4041 90.2716 31.3893 90.1193 31.3893C89.795 31.3893 89.5517 31.4906 89.3896 31.6932C89.2323 31.8957 89.1537 32.1625 89.1537 32.4935C89.1537 32.8443 89.2274 33.116 89.3748 33.3087C89.5272 33.5014 89.7901 33.5977 90.1635 33.5977C90.2962 33.5977 90.4387 33.5854 90.591 33.5607C90.7434 33.536 90.8834 33.4965 91.0112 33.4421L91.166 34.3462C91.0382 34.4006 90.8785 34.4475 90.6869 34.487C90.4952 34.5266 90.2839 34.5463 90.053 34.5463C89.6991 34.5463 89.3945 34.4944 89.1389 34.3907C88.8834 34.282 88.6721 34.1363 88.505 33.9535C88.3429 33.7707 88.2225 33.5557 88.1439 33.3087C88.0701 33.0567 88.0333 32.785 88.0333 32.4935Z" fill="#1B1A19"/>
<path d="M93.0161 33.6496C93.2176 33.6496 93.3601 33.6299 93.4436 33.5903C93.5272 33.5508 93.5689 33.4742 93.5689 33.3606C93.5689 33.2717 93.5149 33.1951 93.4068 33.1309C93.2987 33.0617 93.1341 32.9851 92.9129 32.9011C92.7409 32.8369 92.5837 32.7702 92.4412 32.701C92.3036 32.6319 92.1857 32.5503 92.0874 32.4565C91.9891 32.3577 91.9129 32.2416 91.8589 32.1082C91.8048 31.9748 91.7778 31.8142 91.7778 31.6265C91.7778 31.2609 91.9129 30.9718 92.1832 30.7594C92.4535 30.5469 92.8245 30.4407 93.2962 30.4407C93.5321 30.4407 93.7581 30.463 93.9744 30.5074C94.1906 30.5469 94.3626 30.5914 94.4903 30.6408L94.2987 31.5005C94.1709 31.456 94.0309 31.4165 93.8785 31.3819C93.7311 31.3473 93.564 31.33 93.3773 31.33C93.0333 31.33 92.8613 31.4264 92.8613 31.619C92.8613 31.6635 92.8687 31.703 92.8834 31.7376C92.8982 31.7722 92.9277 31.8068 92.9719 31.8414C93.0161 31.871 93.0751 31.9056 93.1488 31.9451C93.2274 31.9797 93.3257 32.0192 93.4436 32.0637C93.6844 32.1526 93.8834 32.2416 94.0407 32.3305C94.1979 32.4145 94.3208 32.5083 94.4092 32.6121C94.5026 32.7109 94.5665 32.8221 94.6009 32.9456C94.6402 33.0691 94.6599 33.2124 94.6599 33.3754C94.6599 33.7608 94.5149 34.0523 94.225 34.2499C93.94 34.4475 93.5345 34.5463 93.0087 34.5463C92.6648 34.5463 92.3773 34.5167 92.1463 34.4574C91.9203 34.3981 91.763 34.3487 91.6746 34.3092L91.8589 33.4125C92.0456 33.4866 92.2372 33.5459 92.4338 33.5903C92.6304 33.6299 92.8245 33.6496 93.0161 33.6496Z" fill="#1B1A19"/>
<path d="M98.3276 33.8571C98.3276 34.0794 98.2563 34.2499 98.1138 34.3685C97.9762 34.4821 97.819 34.5389 97.6421 34.5389C97.4652 34.5389 97.3055 34.4821 97.163 34.3685C97.0254 34.2499 96.9566 34.0794 96.9566 33.8571C96.9566 33.6348 97.0254 33.4668 97.163 33.3532C97.3055 33.2346 97.4652 33.1753 97.6421 33.1753C97.819 33.1753 97.9762 33.2346 98.1138 33.3532C98.2563 33.4668 98.3276 33.6348 98.3276 33.8571Z" fill="#1B1A19"/>
<path d="M102.443 29.2476C103.205 29.2476 103.789 29.3834 104.197 29.6552C104.605 29.922 104.809 30.3617 104.809 30.9743C104.809 31.5919 104.603 32.039 104.19 32.3157C103.777 32.5874 103.188 32.7233 102.421 32.7233H102.06V34.4426H100.91V29.381C101.16 29.3316 101.426 29.297 101.706 29.2772C101.986 29.2575 102.232 29.2476 102.443 29.2476ZM102.517 30.2332C102.433 30.2332 102.35 30.2357 102.266 30.2406C102.188 30.2456 102.119 30.2505 102.06 30.2554V31.7376H102.421C102.819 31.7376 103.119 31.6833 103.32 31.5746C103.522 31.4659 103.622 31.2633 103.622 30.9669C103.622 30.8236 103.595 30.705 103.541 30.6112C103.492 30.5173 103.418 30.4432 103.32 30.3888C103.227 30.3296 103.111 30.29 102.974 30.2703C102.836 30.2456 102.684 30.2332 102.517 30.2332Z" fill="#1B1A19"/>
<path d="M107.916 31.5227C107.818 31.498 107.703 31.4733 107.57 31.4486C107.437 31.4189 107.295 31.4041 107.142 31.4041C107.074 31.4041 106.99 31.4115 106.892 31.4264C106.799 31.4362 106.727 31.4486 106.678 31.4634V34.4426H105.58V30.752C105.776 30.6828 106.007 30.6186 106.273 30.5593C106.543 30.4951 106.843 30.463 107.172 30.463C107.231 30.463 107.302 30.4679 107.386 30.4778C107.469 30.4827 107.553 30.4926 107.636 30.5074C107.72 30.5173 107.803 30.5321 107.887 30.5519C107.97 30.5667 108.042 30.5865 108.101 30.6112L107.916 31.5227Z" fill="#1B1A19"/>
<path d="M112.244 32.4861C112.244 32.7924 112.2 33.074 112.111 33.3309C112.023 33.5829 111.895 33.8003 111.728 33.9831C111.561 34.161 111.36 34.2993 111.124 34.3981C110.893 34.4969 110.632 34.5463 110.342 34.5463C110.057 34.5463 109.797 34.4969 109.561 34.3981C109.33 34.2993 109.131 34.161 108.964 33.9831C108.797 33.8003 108.667 33.5829 108.573 33.3309C108.48 33.074 108.433 32.7924 108.433 32.4861C108.433 32.1798 108.48 31.9007 108.573 31.6487C108.672 31.3967 108.804 31.1818 108.971 31.0039C109.143 30.8261 109.345 30.6877 109.576 30.5889C109.812 30.4901 110.067 30.4407 110.342 30.4407C110.622 30.4407 110.878 30.4901 111.109 30.5889C111.345 30.6877 111.546 30.8261 111.713 31.0039C111.88 31.1818 112.011 31.3967 112.104 31.6487C112.197 31.9007 112.244 32.1798 112.244 32.4861ZM111.124 32.4861C111.124 32.1452 111.055 31.8784 110.917 31.6857C110.785 31.4881 110.593 31.3893 110.342 31.3893C110.092 31.3893 109.898 31.4881 109.76 31.6857C109.622 31.8784 109.554 32.1452 109.554 32.4861C109.554 32.827 109.622 33.0987 109.76 33.3013C109.898 33.4989 110.092 33.5977 110.342 33.5977C110.593 33.5977 110.785 33.4989 110.917 33.3013C111.055 33.0987 111.124 32.827 111.124 32.4861Z" fill="#1B1A19"/>
<path d="M112.911 32.4935C112.911 32.2119 112.955 31.9476 113.043 31.7006C113.137 31.4486 113.269 31.2312 113.441 31.0484C113.613 30.8607 113.822 30.7124 114.068 30.6038C114.314 30.4951 114.594 30.4407 114.908 30.4407C115.114 30.4407 115.304 30.4605 115.476 30.5C115.648 30.5346 115.815 30.5865 115.977 30.6556L115.748 31.5375C115.645 31.498 115.532 31.4634 115.409 31.4338C115.286 31.4041 115.149 31.3893 114.997 31.3893C114.672 31.3893 114.429 31.4906 114.267 31.6932C114.11 31.8957 114.031 32.1625 114.031 32.4935C114.031 32.8443 114.105 33.116 114.252 33.3087C114.404 33.5014 114.667 33.5977 115.041 33.5977C115.173 33.5977 115.316 33.5854 115.468 33.5607C115.621 33.536 115.761 33.4965 115.888 33.4421L116.043 34.3462C115.915 34.4006 115.756 34.4475 115.564 34.487C115.372 34.5266 115.161 34.5463 114.93 34.5463C114.576 34.5463 114.272 34.4944 114.016 34.3907C113.761 34.282 113.549 34.1363 113.382 33.9535C113.22 33.7707 113.1 33.5557 113.021 33.3087C112.947 33.0567 112.911 32.785 112.911 32.4935Z" fill="#1B1A19"/>
<path d="M120.09 34.3092C119.903 34.3635 119.662 34.4129 119.368 34.4574C119.073 34.5068 118.763 34.5315 118.439 34.5315C118.11 34.5315 117.834 34.487 117.613 34.3981C117.397 34.3092 117.225 34.1857 117.097 34.0276C116.97 33.8645 116.879 33.6718 116.825 33.4495C116.771 33.2272 116.743 32.9826 116.743 32.7158V30.5445H117.842V32.5825C117.842 32.9382 117.888 33.1951 117.982 33.3532C118.075 33.5113 118.25 33.5903 118.505 33.5903C118.584 33.5903 118.667 33.5879 118.756 33.5829C118.844 33.573 118.923 33.5632 118.992 33.5533V30.5445H120.09V34.3092Z" fill="#1B1A19"/>
<path d="M123.458 31.5227C123.359 31.498 123.244 31.4733 123.111 31.4486C122.978 31.4189 122.836 31.4041 122.684 31.4041C122.615 31.4041 122.531 31.4115 122.433 31.4264C122.34 31.4362 122.268 31.4486 122.219 31.4634V34.4426H121.121V30.752C121.317 30.6828 121.548 30.6186 121.814 30.5593C122.084 30.4951 122.384 30.463 122.713 30.463C122.772 30.463 122.843 30.4679 122.927 30.4778C123.01 30.4827 123.094 30.4926 123.177 30.5074C123.261 30.5173 123.345 30.5321 123.428 30.5519C123.512 30.5667 123.583 30.5865 123.642 30.6112L123.458 31.5227Z" fill="#1B1A19"/>
<path d="M123.974 32.5232C123.974 32.1773 124.026 31.876 124.129 31.619C124.237 31.3572 124.377 31.1398 124.549 30.9669C124.721 30.794 124.918 30.663 125.139 30.5741C125.365 30.4852 125.596 30.4407 125.832 30.4407C126.382 30.4407 126.817 30.6112 127.136 30.9521C127.456 31.288 127.616 31.7846 127.616 32.4416C127.616 32.5059 127.613 32.5775 127.608 32.6566C127.603 32.7307 127.598 32.7974 127.593 32.8567H125.102C125.127 33.0839 125.232 33.2642 125.419 33.3976C125.606 33.531 125.856 33.5977 126.171 33.5977C126.372 33.5977 126.569 33.5804 126.761 33.5459C126.957 33.5063 127.117 33.4594 127.24 33.4051L127.387 34.3018C127.328 34.3314 127.25 34.3611 127.151 34.3907C127.053 34.4203 126.942 34.445 126.82 34.4648C126.702 34.4895 126.574 34.5093 126.436 34.5241C126.299 34.5389 126.161 34.5463 126.023 34.5463C125.675 34.5463 125.37 34.4944 125.109 34.3907C124.854 34.2869 124.64 34.1461 124.468 33.9683C124.301 33.7855 124.176 33.5706 124.092 33.3235C124.014 33.0765 123.974 32.8097 123.974 32.5232ZM126.554 32.1007C126.549 32.0069 126.532 31.9155 126.503 31.8265C126.478 31.7376 126.436 31.6586 126.377 31.5894C126.323 31.5202 126.252 31.4634 126.164 31.4189C126.08 31.3745 125.974 31.3523 125.847 31.3523C125.724 31.3523 125.618 31.3745 125.53 31.4189C125.441 31.4585 125.367 31.5128 125.308 31.582C125.249 31.6512 125.203 31.7327 125.168 31.8265C125.139 31.9155 125.117 32.0069 125.102 32.1007H126.554Z" fill="#1B1A19"/>
<path d="M130.593 32.3749C130.593 32.0192 130.547 31.7673 130.453 31.619C130.365 31.4708 130.21 31.3967 129.989 31.3967C129.92 31.3967 129.849 31.4017 129.775 31.4115C129.702 31.4165 129.63 31.4239 129.561 31.4338V34.4426H128.463V30.6779C128.557 30.6532 128.665 30.6285 128.787 30.6038C128.915 30.5741 129.048 30.5494 129.186 30.5296C129.328 30.5049 129.473 30.4877 129.62 30.4778C129.768 30.463 129.913 30.4555 130.055 30.4555C130.335 30.4555 130.561 30.4926 130.733 30.5667C130.91 30.6359 131.055 30.7199 131.168 30.8187C131.326 30.705 131.505 30.6161 131.706 30.5519C131.913 30.4877 132.102 30.4555 132.274 30.4555C132.584 30.4555 132.837 30.5 133.033 30.5889C133.235 30.6729 133.394 30.794 133.512 30.9521C133.63 31.1102 133.711 31.2979 133.756 31.5153C133.8 31.7327 133.822 31.9748 133.822 32.2416V34.4426H132.724V32.3749C132.724 32.0192 132.677 31.7673 132.584 31.619C132.495 31.4708 132.34 31.3967 132.119 31.3967C132.06 31.3967 131.977 31.4115 131.869 31.4412C131.765 31.4708 131.679 31.5079 131.611 31.5523C131.645 31.666 131.667 31.787 131.677 31.9155C131.687 32.039 131.692 32.1724 131.692 32.3157V34.4426H130.593V32.3749Z" fill="#1B1A19"/>
<path d="M134.635 32.5232C134.635 32.1773 134.687 31.876 134.79 31.619C134.898 31.3572 135.038 31.1398 135.21 30.9669C135.382 30.794 135.578 30.663 135.8 30.5741C136.026 30.4852 136.257 30.4407 136.492 30.4407C137.043 30.4407 137.478 30.6112 137.797 30.9521C138.117 31.288 138.276 31.7846 138.276 32.4416C138.276 32.5059 138.274 32.5775 138.269 32.6566C138.264 32.7307 138.259 32.7974 138.254 32.8567H135.763C135.787 33.0839 135.893 33.2642 136.08 33.3976C136.266 33.531 136.517 33.5977 136.832 33.5977C137.033 33.5977 137.23 33.5804 137.421 33.5459C137.618 33.5063 137.777 33.4594 137.9 33.4051L138.048 34.3018C137.989 34.3314 137.91 34.3611 137.812 34.3907C137.714 34.4203 137.603 34.445 137.48 34.4648C137.362 34.4895 137.234 34.5093 137.097 34.5241C136.959 34.5389 136.822 34.5463 136.684 34.5463C136.335 34.5463 136.031 34.4944 135.77 34.3907C135.515 34.2869 135.301 34.1461 135.129 33.9683C134.962 33.7855 134.836 33.5706 134.753 33.3235C134.674 33.0765 134.635 32.8097 134.635 32.5232ZM137.215 32.1007C137.21 32.0069 137.193 31.9155 137.163 31.8265C137.139 31.7376 137.097 31.6586 137.038 31.5894C136.984 31.5202 136.913 31.4634 136.824 31.4189C136.741 31.3745 136.635 31.3523 136.507 31.3523C136.384 31.3523 136.279 31.3745 136.19 31.4189C136.102 31.4585 136.028 31.5128 135.969 31.582C135.91 31.6512 135.863 31.7327 135.829 31.8265C135.8 31.9155 135.777 32.0069 135.763 32.1007H137.215Z" fill="#1B1A19"/>
<path d="M139.124 30.6779C139.311 30.6235 139.551 30.5741 139.846 30.5296C140.141 30.4802 140.451 30.4555 140.775 30.4555C141.104 30.4555 141.377 30.5 141.593 30.5889C141.814 30.6729 141.989 30.794 142.116 30.9521C142.244 31.1102 142.335 31.2979 142.389 31.5153C142.443 31.7327 142.47 31.9748 142.47 32.2416V34.4426H141.372V32.3749C141.372 32.0192 141.325 31.7673 141.232 31.619C141.139 31.4708 140.964 31.3967 140.709 31.3967C140.63 31.3967 140.546 31.4017 140.458 31.4115C140.37 31.4165 140.291 31.4239 140.222 31.4338V34.4426H139.124V30.6779Z" fill="#1B1A19"/>
<path d="M143.428 29.5737L144.526 29.3958V30.5445H145.845V31.4634H144.526V32.8344C144.526 33.0666 144.565 33.2519 144.644 33.3902C144.727 33.5286 144.892 33.5977 145.138 33.5977C145.256 33.5977 145.376 33.5879 145.499 33.5681C145.627 33.5434 145.742 33.5113 145.845 33.4718L146 34.3314C145.867 34.3858 145.72 34.4327 145.558 34.4722C145.396 34.5117 145.197 34.5315 144.961 34.5315C144.661 34.5315 144.413 34.492 144.216 34.4129C144.02 34.3289 143.862 34.2153 143.744 34.072C143.627 33.9238 143.543 33.746 143.494 33.5384C143.45 33.3309 143.428 33.1012 143.428 32.8492V29.5737Z" fill="#1B1A19"/>
<path d="M13.0388 1.56055C10.6379 1.56055 8.69252 3.60895 8.69252 6.13701H8.68543C8.68543 6.16688 8.67835 10.7116 4.34626 10.7116V10.7125C1.94625 10.7125 0 12.7619 0 15.289C0 17.8161 1.94625 19.8655 4.34626 19.8655C4.34892 19.8655 4.35158 19.8655 4.35512 19.8655C4.37551 19.8655 4.44818 19.8664 4.57403 19.8655C5.15365 19.8552 6.77996 19.7684 8.68543 19.1758C8.68809 19.174 8.68986 19.174 8.69252 19.173C10.0911 18.7372 11.6403 18.028 13.0388 16.8736C13.5918 16.4182 14.1209 15.8937 14.6084 15.289C15.5655 14.0992 16.3596 12.6004 16.848 10.7125C17.1723 9.46298 17.3629 8.0417 17.3771 6.42818V6.41978C17.3788 6.41231 17.3788 6.40485 17.3788 6.39738C17.3833 6.31152 17.3859 6.22474 17.3859 6.13795C17.385 3.60895 15.4397 1.56055 13.0388 1.56055Z" fill="#1B1A19"/>
<path d="M29.8646 37.4342C29.8646 35.0003 28.0602 33.0107 25.7825 32.867V32.8577H20.939C20.4152 32.8456 19.3446 32.7158 18.3706 31.8862C17.0917 30.7953 16.8648 29.2452 16.825 28.5789C16.817 28.4315 16.817 28.327 16.8179 28.2812L16.8196 26.9215C16.825 26.8907 16.8285 26.8609 16.8338 26.8301C16.8338 26.8301 16.9464 26.2188 17.2238 25.6262C18.126 23.6973 21.1943 21.2626 23.565 18.5936C23.885 18.2334 24.1535 17.9133 24.3538 17.6669C24.4469 17.5614 24.5355 17.4513 24.6188 17.3365C24.6223 17.3328 24.6259 17.3272 24.6294 17.3235C24.6294 17.3235 24.6294 17.3235 24.6286 17.3235C25.1851 16.5545 25.5166 15.5942 25.5166 14.5528C25.5166 12.0256 23.5712 9.9763 21.1703 9.9763V9.97537C21.0303 9.96604 20.8628 9.96324 20.6731 9.97537C20.417 9.99123 20.1228 10.036 19.8064 10.1331C18.36 10.581 17.4781 11.8549 16.8232 13.0764C16.8205 13.0811 16.8179 13.0858 16.8161 13.0895C16.5378 13.6093 16.3012 14.1198 16.0796 14.5518C16.0291 14.6489 15.9803 14.7431 15.9316 14.8318C15.313 15.9591 14.2867 17.2152 12.4769 18.3351C12.0364 18.6094 11.5472 18.8745 11.0075 19.1283C10.9073 19.175 10.8054 19.2216 10.7017 19.2683C10.6441 19.2935 10.5856 19.3187 10.5271 19.3439C10.481 19.3635 10.4358 19.384 10.3889 19.4036C10.3091 19.4372 10.2276 19.4699 10.146 19.5035C10.1203 19.5137 10.0946 19.5249 10.068 19.5352C9.97321 19.5734 9.87572 19.6108 9.77823 19.6481C9.76494 19.6528 9.75253 19.6584 9.73923 19.663C9.632 19.7032 9.52299 19.7433 9.41309 19.7834C9.40866 19.7843 9.40511 19.7862 9.40068 19.7881C9.05326 19.9122 8.68989 20.0316 8.3088 20.1464L8.12977 20.2099V20.2118L8.13686 20.209C8.13686 21.3745 8.13509 22.5411 8.1342 23.7066H8.12977V20.2118L8.12268 20.2146V28.2831C8.12445 28.3344 8.12711 28.3876 8.12977 28.4408C8.18561 29.598 8.36463 31.1574 8.89108 32.8596H8.89285C9.26951 34.0783 9.8252 35.3708 10.6415 36.6428C10.7895 36.8742 10.9632 37.1439 11.1723 37.436C11.5065 37.9138 11.931 38.4532 12.4769 38.9954C12.8341 39.3519 13.2427 39.7084 13.7133 40.049C14.7529 40.804 15.8208 41.2827 16.8232 41.5832C17.6332 41.8277 18.4007 41.9528 19.0752 42.0125C19.4155 42.0424 19.7319 42.0554 20.0191 42.0582H25.7798V42.0032C28.0593 41.8576 29.8646 39.8689 29.8646 37.4342Z" fill="#005AA5"/>
</g>
<defs>
<clipPath id="clip0_208_4379">
<rect width="146" height="44" fill="white"/>
</clipPath>
</defs>
</svg>
