<?xml version="1.0" encoding="UTF-8"?>
<!DOCTYPE svg PUBLIC "-//W3C//DTD SVG 1.1//EN" "http://www.w3.org/Graphics/SVG/1.1/DTD/svg11.dtd">
<!-- Creator: CorelDRAW 2021 (64-Bit) -->
<svg xmlns="http://www.w3.org/2000/svg" xml:space="preserve" width="0.296303in" height="0.296303in" version="1.1" style="shape-rendering:geometricPrecision; text-rendering:geometricPrecision; image-rendering:optimizeQuality; fill-rule:evenodd; clip-rule:evenodd"
viewBox="0 0 191.38 191.38"
 xmlns:xlink="http://www.w3.org/1999/xlink"
 xmlns:xodm="http://www.corel.com/coreldraw/odm/2003">
 <defs>
  <style type="text/css">
   <![CDATA[
    .fil2 {fill:#005AA5}
    .fil0 {fill:#F7F8FA;fill-rule:nonzero}
    .fil1 {fill:#005AA5;fill-opacity:0.400000}
   ]]>
  </style>
 </defs>
 <g id="Layer_x0020_1">
  <metadata id="CorelCorpID_0Corel-Layer"/>
  <circle class="fil0" cx="95.69" cy="95.69" r="95.69"/>
  <g id="_2724467183936">
   <path class="fil1" d="M94.45 103.86l-13.4 13.4c-1.49,-1.3 -2.92,-2.65 -4.3,-4.06 -4.22,-4.27 -8.04,-8.73 -11.44,-13.4 -3.37,-4.67 -6.08,-9.34 -8.04,-13.98 -1.96,-4.67 -2.94,-9.15 -2.94,-13.4 0,-2.78 0.5,-5.46 1.49,-7.91 0.98,-2.49 2.55,-4.8 4.72,-6.85 2.63,-2.57 5.49,-3.85 8.52,-3.85 1.14,0 2.28,0.24 3.32,0.74 1.06,0.5 2.02,1.22 2.76,2.31l9.53 13.4c0.74,1.03 1.27,1.96 1.65,2.87 0.37,0.85 0.58,1.72 0.58,2.49 0,0.98 -0.29,1.96 -0.85,2.92 -0.53,0.96 -1.3,1.94 -2.28,2.92l-3.1 3.24c-0.45,0.45 -0.66,0.98 -0.66,1.65 0,0.32 0.05,0.61 0.13,0.95 0.13,0.32 0.24,0.58 0.32,0.82 0.74,1.35 2.02,3.1 3.82,5.25 1.86,2.12 3.82,4.3 5.95,6.47 1.49,1.43 2.92,2.84 4.35,4.06l-0.11 -0.05z"/>
   <path class="fil2" d="M137.04 122.51c0,1.14 -0.21,2.34 -0.61,3.48 -0.13,0.32 -0.24,0.66 -0.4,0.98 -0.69,1.49 -1.59,2.87 -2.79,4.19 -2.02,2.2 -4.22,3.82 -6.71,4.83 -0.05,0 -0.08,0.05 -0.13,0.05 -2.42,0.98 -5.04,1.51 -7.88,1.51 -4.19,0 -8.65,-0.98 -13.37,-3 -4.72,-2.02 -9.42,-4.72 -14.09,-8.12 -1.59,-1.2 -3.21,-2.39 -4.72,-3.66l13.4 -13.4c1.14,0.85 2.17,1.51 3.02,1.96 0.21,0.08 0.45,0.21 0.75,0.32 0.32,0.13 0.66,0.16 1.03,0.16 0.69,0 1.22,-0.24 1.67,-0.69l3.1 -3.08c1.03,-1.03 2.02,-1.8 2.94,-2.31 0.96,-0.58 1.88,-0.85 2.92,-0.85 0.77,0 1.59,0.16 2.49,0.53 0.9,0.37 1.86,0.9 2.87,1.59l13.56 9.63c1.06,0.74 1.8,1.59 2.26,2.63 0.4,1.03 0.66,2.04 0.66,3.18l0.03 0.05z"/>
  </g>
 </g>
</svg>
