<svg width="46" height="46" viewBox="0 0 46 46" fill="none" xmlns="http://www.w3.org/2000/svg">
<path d="M3 23C3 11.9543 11.9543 3 23 3C34.0457 3 43 11.9543 43 23C43 34.0457 34.0457 43 23 43C11.9543 43 3 34.0457 3 23Z" fill="#D1FADF"/>
<path d="M31.3337 22.2334V23C31.3326 24.797 30.7507 26.5456 29.6748 27.9849C28.5988 29.4242 27.0864 30.4771 25.3631 30.9866C23.6399 31.4961 21.798 31.4349 20.1124 30.8122C18.4267 30.1894 16.9875 29.0384 16.0095 27.5309C15.0314 26.0234 14.5668 24.2401 14.6851 22.447C14.8033 20.6538 15.498 18.947 16.6656 17.5809C17.8331 16.2149 19.411 15.2628 21.1638 14.8668C22.9167 14.4708 24.7505 14.652 26.392 15.3834M31.3337 16.3334L23.0003 24.675L20.5003 22.175" stroke="#039855" stroke-width="1.66667" stroke-linecap="round" stroke-linejoin="round"/>
<path d="M23 40C13.6112 40 6 32.3888 6 23H0C0 35.7025 10.2975 46 23 46V40ZM40 23C40 32.3888 32.3888 40 23 40V46C35.7025 46 46 35.7025 46 23H40ZM23 6C32.3888 6 40 13.6112 40 23H46C46 10.2975 35.7025 0 23 0V6ZM23 0C10.2975 0 0 10.2975 0 23H6C6 13.6112 13.6112 6 23 6V0Z" fill="#ECFDF3"/>
</svg>
