<?xml version="1.0" encoding="UTF-8"?>
<!DOCTYPE svg PUBLIC "-//W3C//DTD SVG 1.1//EN" "http://www.w3.org/Graphics/SVG/1.1/DTD/svg11.dtd">
<!-- Creator: CorelDRAW 2021 (64-Bit) -->
<svg xmlns="http://www.w3.org/2000/svg" xml:space="preserve" width="0.254969in" height="0.255031in" version="1.1" style="shape-rendering:geometricPrecision; text-rendering:geometricPrecision; image-rendering:optimizeQuality; fill-rule:evenodd; clip-rule:evenodd"
viewBox="0 0 22.16 22.17"
 xmlns:xlink="http://www.w3.org/1999/xlink"
 xmlns:xodm="http://www.corel.com/coreldraw/odm/2003">
 <defs>
  <style type="text/css">
   <![CDATA[
    .fil2 {fill:none}
    .fil0 {fill:#005AA5}
    .fil1 {fill:#005AA5;fill-rule:nonzero}
   ]]>
  </style>
   <clipPath id="id0">
    <path d="M11.08 0c6.12,0 11.08,4.96 11.08,11.08 0,6.12 -4.96,11.08 -11.08,11.08 -6.12,0 -11.08,-4.96 -11.08,-11.08 0,-6.12 4.96,-11.08 11.08,-11.08z"/>
   </clipPath>
 </defs>
 <g id="Layer_x0020_1">
  <metadata id="CorelCorpID_0Corel-Layer"/>
  <g>
  </g>
  <g style="clip-path:url(#id0)">
   <g>
    <g id="_2724573054592">
     <path class="fil0" d="M11.08 0.22c-6,0 -10.87,4.86 -10.87,10.87 0,6 4.86,10.87 10.87,10.87 6,0 10.87,-4.86 10.87,-10.87 0,-6 -4.86,-10.87 -10.87,-10.87zm1.13 11.34l0 5.91 -2.45 0 0 -5.91 -1.22 0 0 -2.04 1.22 0 0 -1.22c0,-1.66 0.69,-2.65 2.65,-2.65l1.63 0 0 2.04 -1.02 0c-0.76,0 -0.81,0.28 -0.81,0.82l-0 1.02 1.85 0 -0.22 2.04 -1.63 0z"/>
     <path class="fil0" d="M108.88 0.22c-6,0 -10.87,4.86 -10.87,10.87 0,6 4.87,10.87 10.87,10.87 6,0 10.87,-4.86 10.87,-10.87 0,-6 -4.87,-10.87 -10.87,-10.87zm-2.39 5.11c0.62,-0.03 0.82,-0.03 2.39,-0.03l-0 0c1.57,0 1.77,0.01 2.39,0.03 0.62,0.03 1.04,0.13 1.41,0.27 0.38,0.15 0.7,0.35 1.03,0.67 0.32,0.32 0.52,0.65 0.67,1.03 0.14,0.37 0.24,0.79 0.27,1.41 0.03,0.62 0.04,0.82 0.04,2.39 0,1.57 -0.01,1.77 -0.04,2.39 -0.03,0.62 -0.13,1.04 -0.27,1.41 -0.15,0.38 -0.35,0.7 -0.67,1.03 -0.32,0.32 -0.64,0.52 -1.03,0.67 -0.37,0.14 -0.79,0.24 -1.41,0.27 -0.62,0.03 -0.82,0.04 -2.39,0.04 -1.57,0 -1.77,-0.01 -2.39,-0.04 -0.62,-0.03 -1.04,-0.13 -1.41,-0.27 -0.38,-0.15 -0.7,-0.35 -1.03,-0.67 -0.32,-0.32 -0.52,-0.65 -0.67,-1.03 -0.14,-0.37 -0.24,-0.79 -0.27,-1.41 -0.03,-0.62 -0.04,-0.82 -0.04,-2.39 0,-1.57 0.01,-1.77 0.03,-2.39 0.03,-0.62 0.13,-1.04 0.27,-1.41 0.15,-0.38 0.35,-0.7 0.67,-1.03 0.32,-0.32 0.65,-0.52 1.03,-0.67 0.37,-0.14 0.79,-0.24 1.41,-0.27z"/>
     <path class="fil0" d="M108.36 6.33c0.1,0 0.21,0 0.33,0l0.19 0c1.55,0 1.73,0.01 2.34,0.03 0.57,0.03 0.87,0.12 1.08,0.2 0.27,0.11 0.46,0.23 0.67,0.43 0.2,0.2 0.33,0.4 0.43,0.67 0.08,0.2 0.17,0.51 0.2,1.08 0.03,0.61 0.03,0.79 0.03,2.34 0,1.55 -0.01,1.73 -0.03,2.34 -0.03,0.57 -0.12,0.87 -0.2,1.08 -0.11,0.27 -0.23,0.46 -0.43,0.67 -0.2,0.2 -0.4,0.33 -0.67,0.43 -0.2,0.08 -0.51,0.17 -1.08,0.2 -0.61,0.03 -0.8,0.03 -2.34,0.03 -1.55,0 -1.73,-0.01 -2.34,-0.03 -0.57,-0.03 -0.87,-0.12 -1.08,-0.2 -0.27,-0.11 -0.46,-0.23 -0.67,-0.43 -0.2,-0.2 -0.33,-0.4 -0.43,-0.67 -0.08,-0.2 -0.17,-0.51 -0.2,-1.08 -0.03,-0.61 -0.03,-0.79 -0.03,-2.34 0,-1.55 0.01,-1.73 0.03,-2.34 0.03,-0.57 0.12,-0.87 0.2,-1.08 0.11,-0.27 0.23,-0.46 0.43,-0.67 0.2,-0.2 0.4,-0.33 0.67,-0.43 0.2,-0.08 0.51,-0.17 1.08,-0.2 0.54,-0.02 0.74,-0.03 1.82,-0.03l0 0zm3.61 0.96c-0.38,0 -0.7,0.31 -0.7,0.7 0,0.38 0.31,0.7 0.7,0.7 0.38,0 0.7,-0.31 0.7,-0.7 0,-0.38 -0.31,-0.7 -0.7,-0.7l0 0zm-6.07 3.79c0,-1.64 1.33,-2.98 2.98,-2.98 1.64,0 2.98,1.33 2.98,2.98 0,1.64 -1.33,2.98 -2.98,2.98 -1.64,0 -2.98,-1.33 -2.98,-2.98z"/>
     <path class="fil1" d="M108.88 9.15c1.07,0 1.93,0.86 1.93,1.93 0,1.07 -0.86,1.93 -1.93,1.93 -1.07,0 -1.93,-0.87 -1.93,-1.93 0,-1.07 0.86,-1.93 1.93,-1.93z"/>
     <path class="fil0" d="M43.68 0.22c-6,0 -10.87,4.86 -10.87,10.87 0,6 4.86,10.87 10.87,10.87 6,0 10.87,-4.86 10.87,-10.87 0,-6 -4.86,-10.87 -10.87,-10.87zm-5.65 9l2.46 0 0 7.4 -2.46 0 0 -7.4zm2.62 -2.29c-0.02,-0.73 -0.53,-1.28 -1.38,-1.28 -0.84,0 -1.39,0.55 -1.39,1.28 0,0.71 0.53,1.28 1.36,1.28l0.02 0c0.86,0 1.39,-0.57 1.39,-1.28zm5.88 2.12c1.62,0 2.84,1.06 2.84,3.33l0 4.24 -2.46 0 0 -3.96c0,-0.99 -0.36,-1.67 -1.25,-1.67 -0.68,0 -1.09,0.46 -1.26,0.9 -0.07,0.16 -0.08,0.38 -0.08,0.6l0 4.13 -2.46 0c0,0 0.03,-6.7 0,-7.4l2.46 0 0 1.05c0.33,-0.5 0.91,-1.22 2.22,-1.22z"/>
     <path class="fil0" d="M141.47 0.22c-6,0 -10.87,4.86 -10.87,10.87 0,6 4.87,10.87 10.87,10.87 6,0 10.87,-4.86 10.87,-10.87 0,-6 -4.87,-10.87 -10.87,-10.87zm-0.3 9.21l-0.02 -0.38c-0.07,-0.97 0.53,-1.86 1.48,-2.21 0.35,-0.12 0.94,-0.14 1.33,-0.03 0.15,0.05 0.44,0.2 0.65,0.34l0.37 0.25 0.41 -0.13c0.23,-0.07 0.53,-0.18 0.67,-0.26 0.13,-0.07 0.24,-0.11 0.24,-0.08 0,0.13 -0.28,0.58 -0.52,0.82 -0.32,0.35 -0.23,0.38 0.42,0.15 0.39,-0.13 0.4,-0.13 0.32,0.02 -0.05,0.08 -0.28,0.35 -0.53,0.59 -0.43,0.42 -0.45,0.47 -0.45,0.82 0,0.54 -0.26,1.68 -0.52,2.3 -0.48,1.17 -1.5,2.37 -2.53,2.98 -1.44,0.85 -3.37,1.07 -4.99,0.57 -0.54,-0.17 -1.47,-0.6 -1.47,-0.68 0,-0.02 0.28,-0.05 0.62,-0.06 0.71,-0.02 1.43,-0.21 2.04,-0.57l0.41 -0.25 -0.47 -0.16c-0.67,-0.23 -1.27,-0.76 -1.42,-1.26 -0.05,-0.16 -0.03,-0.17 0.4,-0.17l0.44 -0.01 -0.37 -0.18c-0.44,-0.22 -0.84,-0.6 -1.04,-0.98 -0.14,-0.28 -0.33,-0.97 -0.27,-1.03 0.02,-0.02 0.17,0.02 0.36,0.08 0.52,0.19 0.59,0.15 0.29,-0.18 -0.57,-0.58 -0.74,-1.45 -0.47,-2.27l0.13 -0.37 0.5 0.5c1.03,1.01 2.23,1.6 3.62,1.78l0.38 0.05z"/>
     <path class="fil0" d="M76.28 0.22c-6,0 -10.87,4.86 -10.87,10.87 0,6 4.86,10.87 10.87,10.87 6,0 10.87,-4.86 10.87,-10.87 0,-6 -4.86,-10.87 -10.87,-10.87zm4.53 7.13c0.5,0.14 0.89,0.54 1.02,1.05 0.24,0.93 0.24,2.86 0.24,2.86 0,0 0,1.94 -0.24,2.86 -0.13,0.51 -0.53,0.92 -1.02,1.05 -0.9,0.25 -4.53,0.25 -4.53,0.25 0,0 -3.62,0 -4.53,-0.25 -0.5,-0.14 -0.89,-0.54 -1.02,-1.05 -0.24,-0.93 -0.24,-2.86 -0.24,-2.86 0,0 0,-1.94 0.24,-2.86 0.13,-0.51 0.53,-0.92 1.02,-1.05 0.9,-0.25 4.53,-0.25 4.53,-0.25 0,0 3.62,0 4.53,0.25z"/>
     <polygon class="fil1" points="75.19,13.26 75.19,9.64 78.09,11.45 "/>
    </g>
   </g>
  </g>
  <path class="fil2" d="M11.08 0c6.12,0 11.08,4.96 11.08,11.08 0,6.12 -4.96,11.08 -11.08,11.08 -6.12,0 -11.08,-4.96 -11.08,-11.08 0,-6.12 4.96,-11.08 11.08,-11.08z"/>
 </g>
</svg>
