<?xml version="1.0" encoding="UTF-8"?>
<!DOCTYPE svg PUBLIC "-//W3C//DTD SVG 1.1//EN" "http://www.w3.org/Graphics/SVG/1.1/DTD/svg11.dtd">
<!-- Creator: CorelDRAW 2021 (64-Bit) -->
<svg xmlns="http://www.w3.org/2000/svg" xml:space="preserve" width="0.254969in" height="0.255031in" version="1.1" style="shape-rendering:geometricPrecision; text-rendering:geometricPrecision; image-rendering:optimizeQuality; fill-rule:evenodd; clip-rule:evenodd"
viewBox="0 0 95.17 95.19"
 xmlns:xlink="http://www.w3.org/1999/xlink"
 xmlns:xodm="http://www.corel.com/coreldraw/odm/2003">
 <defs>
  <style type="text/css">
   <![CDATA[
    .fil2 {fill:none}
    .fil0 {fill:#005AA5}
    .fil1 {fill:#005AA5;fill-rule:nonzero}
   ]]>
  </style>
   <clipPath id="id0">
    <path d="M47.58 0c26.28,0 47.58,21.31 47.58,47.59 0,26.29 -21.3,47.59 -47.58,47.59 -26.28,0 -47.58,-21.31 -47.58,-47.59 0,-26.29 21.3,-47.59 47.58,-47.59z"/>
   </clipPath>
 </defs>
 <g id="Layer_x0020_1">
  <metadata id="CorelCorpID_0Corel-Layer"/>
  <g>
  </g>
  <g style="clip-path:url(#id0)">
   <g>
    <g id="_2724476422864">
     <path class="fil0" d="M-372.32 0.94c-25.77,0 -46.66,20.89 -46.66,46.66 0,25.77 20.89,46.66 46.66,46.66 25.77,0 46.66,-20.89 46.66,-46.66 0,-25.77 -20.89,-46.66 -46.66,-46.66zm4.86 48.71l0 25.38 -10.5 0 0 -25.38 -5.25 0 0 -8.75 5.25 0 0 -5.25c0,-7.14 2.96,-11.38 11.38,-11.38l7.01 0 0 8.75 -4.38 0c-3.28,0 -3.49,1.22 -3.49,3.5l-0.01 4.38 7.94 0 -0.93 8.75 -7.01 0z"/>
     <path class="fil0" d="M47.58 0.94c-25.77,0 -46.66,20.89 -46.66,46.66 0,25.77 20.89,46.66 46.66,46.66 25.77,0 46.66,-20.89 46.66,-46.66 0,-25.77 -20.89,-46.66 -46.66,-46.66zm-10.26 21.92c2.66,-0.12 3.5,-0.15 10.26,-0.15l-0.01 0c6.76,0 7.6,0.03 10.26,0.15 2.65,0.12 4.46,0.54 6.05,1.16 1.64,0.63 3.02,1.48 4.41,2.87 1.38,1.38 2.24,2.77 2.87,4.41 0.61,1.58 1.03,3.39 1.16,6.04 0.12,2.65 0.15,3.5 0.15,10.26 0,6.76 -0.03,7.6 -0.15,10.26 -0.12,2.65 -0.54,4.46 -1.16,6.04 -0.64,1.64 -1.49,3.02 -2.87,4.41 -1.38,1.38 -2.77,2.24 -4.41,2.87 -1.58,0.61 -3.39,1.03 -6.04,1.16 -2.66,0.12 -3.5,0.15 -10.26,0.15 -6.76,0 -7.6,-0.03 -10.26,-0.15 -2.65,-0.12 -4.46,-0.54 -6.04,-1.16 -1.63,-0.64 -3.02,-1.49 -4.41,-2.87 -1.38,-1.38 -2.24,-2.77 -2.87,-4.41 -0.61,-1.58 -1.03,-3.39 -1.16,-6.04 -0.12,-2.66 -0.15,-3.5 -0.15,-10.26 0,-6.76 0.03,-7.61 0.15,-10.26 0.12,-2.65 0.54,-4.46 1.16,-6.04 0.64,-1.64 1.48,-3.03 2.87,-4.41 1.38,-1.38 2.77,-2.23 4.41,-2.87 1.58,-0.62 3.39,-1.04 6.04,-1.16z"/>
     <path class="fil0" d="M45.35 27.2c0.44,0 0.9,0 1.4,0l0.83 0c6.64,0 7.43,0.02 10.05,0.14 2.43,0.11 3.74,0.52 4.62,0.86 1.16,0.45 1.99,0.99 2.86,1.86 0.87,0.87 1.41,1.7 1.86,2.86 0.34,0.88 0.75,2.19 0.86,4.62 0.12,2.62 0.14,3.41 0.14,10.05 0,6.64 -0.02,7.43 -0.14,10.05 -0.11,2.43 -0.52,3.74 -0.86,4.62 -0.45,1.16 -0.99,1.99 -1.86,2.86 -0.87,0.87 -1.7,1.41 -2.86,1.86 -0.87,0.34 -2.19,0.75 -4.62,0.86 -2.62,0.12 -3.41,0.14 -10.05,0.14 -6.64,0 -7.43,-0.03 -10.06,-0.14 -2.43,-0.11 -3.74,-0.52 -4.62,-0.86 -1.16,-0.45 -1.99,-0.99 -2.86,-1.86 -0.87,-0.87 -1.41,-1.7 -1.86,-2.86 -0.34,-0.88 -0.75,-2.19 -0.86,-4.62 -0.12,-2.62 -0.14,-3.41 -0.14,-10.06 0,-6.64 0.02,-7.43 0.14,-10.05 0.11,-2.43 0.52,-3.74 0.86,-4.62 0.45,-1.16 0.99,-1.99 1.86,-2.86 0.87,-0.87 1.7,-1.41 2.86,-1.86 0.88,-0.34 2.19,-0.75 4.62,-0.86 2.3,-0.1 3.19,-0.13 7.82,-0.14l0 0.01zm15.52 4.13c-1.65,0 -2.99,1.34 -2.99,2.98 0,1.65 1.34,2.99 2.99,2.99 1.65,0 2.99,-1.34 2.99,-2.99 0,-1.65 -1.34,-2.99 -2.99,-2.99l0 0zm-26.06 16.27c0,-7.06 5.72,-12.78 12.78,-12.78 7.06,0 12.78,5.72 12.78,12.78 0,7.06 -5.72,12.78 -12.78,12.78 -7.06,0 -12.78,-5.72 -12.78,-12.78z"/>
     <path class="fil1" d="M47.59 39.3c4.58,0 8.29,3.71 8.29,8.29 0,4.58 -3.71,8.3 -8.29,8.3 -4.58,0 -8.3,-3.71 -8.3,-8.3 0,-4.58 3.71,-8.29 8.3,-8.29z"/>
     <path class="fil0" d="M-232.35 0.94c-25.77,0 -46.66,20.89 -46.66,46.66 0,25.77 20.89,46.66 46.66,46.66 25.77,0 46.66,-20.89 46.66,-46.66 0,-25.77 -20.89,-46.66 -46.66,-46.66zm-24.26 38.64l10.57 0 0 31.77 -10.57 0 0 -31.77zm11.27 -9.83c-0.07,-3.12 -2.3,-5.49 -5.91,-5.49 -3.62,0 -5.98,2.37 -5.98,5.49 0,3.05 2.3,5.49 5.85,5.49l0.07 0c3.69,0 5.98,-2.44 5.98,-5.49zm25.26 9.08c6.96,0 12.17,4.54 12.17,14.3l0 18.22 -10.57 0 0 -17c0,-4.27 -1.53,-7.18 -5.36,-7.18 -2.92,0 -4.66,1.96 -5.43,3.86 -0.28,0.68 -0.35,1.63 -0.35,2.58l0 17.74 -10.57 0c0,0 0.14,-28.79 0,-31.77l10.57 0 0 4.5c1.4,-2.16 3.92,-5.25 9.53,-5.25z"/>
     <path class="fil0" d="M187.55 0.94c-25.77,0 -46.66,20.89 -46.66,46.66 0,25.77 20.89,46.66 46.66,46.66 25.77,0 46.66,-20.89 46.66,-46.66 0,-25.77 -20.89,-46.66 -46.66,-46.66zm-1.3 39.54l-0.1 -1.61c-0.3,-4.18 2.28,-8.01 6.36,-9.49 1.5,-0.53 4.05,-0.59 5.71,-0.13 0.65,0.2 1.89,0.86 2.78,1.45l1.6 1.09 1.76 -0.56c0.98,-0.3 2.29,-0.79 2.87,-1.12 0.56,-0.3 1.05,-0.46 1.05,-0.36 0,0.56 -1.21,2.47 -2.22,3.53 -1.37,1.48 -0.98,1.61 1.79,0.63 1.67,-0.56 1.7,-0.56 1.37,0.07 -0.2,0.33 -1.21,1.48 -2.29,2.54 -1.83,1.81 -1.93,2.01 -1.93,3.53 0,2.34 -1.11,7.22 -2.22,9.88 -2.05,5.01 -6.46,10.18 -10.87,12.78 -6.2,3.66 -14.46,4.58 -21.41,2.44 -2.32,-0.72 -6.3,-2.57 -6.3,-2.9 0,-0.1 1.21,-0.23 2.67,-0.26 3.07,-0.07 6.14,-0.92 8.75,-2.44l1.76 -1.06 -2.02 -0.69c-2.87,-0.99 -5.45,-3.26 -6.1,-5.4 -0.19,-0.69 -0.13,-0.73 1.7,-0.73l1.89 -0.03 -1.6 -0.76c-1.89,-0.96 -3.62,-2.57 -4.47,-4.22 -0.62,-1.19 -1.4,-4.18 -1.17,-4.41 0.07,-0.1 0.75,0.1 1.53,0.36 2.25,0.82 2.55,0.63 1.24,-0.76 -2.45,-2.5 -3.2,-6.23 -2.02,-9.75l0.56 -1.58 2.15 2.14c4.41,4.32 9.59,6.89 15.53,7.64l1.63 0.2z"/>
     <path class="fil0" d="M-92.38 0.94c-25.77,0 -46.66,20.89 -46.66,46.66 0,25.77 20.89,46.66 46.66,46.66 25.77,0 46.66,-20.89 46.66,-46.66 0,-25.77 -20.89,-46.66 -46.66,-46.66zm19.44 30.62c2.14,0.59 3.83,2.32 4.4,4.52 1.04,3.99 1.04,12.3 1.04,12.3 0,0 0,8.31 -1.04,12.3 -0.57,2.2 -2.26,3.93 -4.4,4.52 -3.88,1.07 -19.44,1.07 -19.44,1.07 0,0 -15.56,0 -19.44,-1.07 -2.14,-0.59 -3.83,-2.32 -4.4,-4.52 -1.04,-3.99 -1.04,-12.3 -1.04,-12.3 0,0 0,-8.31 1.04,-12.3 0.57,-2.2 2.26,-3.93 4.4,-4.52 3.88,-1.07 19.44,-1.07 19.44,-1.07 0,0 15.56,0 19.44,1.07z"/>
     <polygon class="fil1" points="-97.05,56.93 -97.05,41.37 -84.61,49.15 "/>
    </g>
   </g>
  </g>
  <path class="fil2" d="M47.58 0c26.28,0 47.58,21.31 47.58,47.59 0,26.29 -21.3,47.59 -47.58,47.59 -26.28,0 -47.58,-21.31 -47.58,-47.59 0,-26.29 21.3,-47.59 47.58,-47.59z"/>
 </g>
</svg>
