<?xml version="1.0" encoding="UTF-8"?>
<!DOCTYPE svg PUBLIC "-//W3C//DTD SVG 1.1//EN" "http://www.w3.org/Graphics/SVG/1.1/DTD/svg11.dtd">
<!-- Creator: CorelDRAW 2021 (64-Bit) -->
<svg xmlns="http://www.w3.org/2000/svg" xml:space="preserve" width="0.254969in" height="0.255031in" version="1.1" style="shape-rendering:geometricPrecision; text-rendering:geometricPrecision; image-rendering:optimizeQuality; fill-rule:evenodd; clip-rule:evenodd"
viewBox="0 0 29.78 29.79"
 xmlns:xlink="http://www.w3.org/1999/xlink"
 xmlns:xodm="http://www.corel.com/coreldraw/odm/2003">
 <defs>
  <style type="text/css">
   <![CDATA[
    .fil2 {fill:none}
    .fil0 {fill:#005AA5}
    .fil1 {fill:#005AA5;fill-rule:nonzero}
   ]]>
  </style>
   <clipPath id="id0">
    <path d="M14.89 0c8.22,0 14.89,6.67 14.89,14.89 0,8.23 -6.67,14.89 -14.89,14.89 -8.22,0 -14.89,-6.67 -14.89,-14.89 0,-8.23 6.67,-14.89 14.89,-14.89z"/>
   </clipPath>
 </defs>
 <g id="Layer_x0020_1">
  <metadata id="CorelCorpID_0Corel-Layer"/>
  <g>
  </g>
  <g style="clip-path:url(#id0)">
   <g>
    <g id="_2724587698832">
     <path class="fil0" d="M-28.91 0.29c-8.06,0 -14.6,6.54 -14.6,14.6 0,8.06 6.54,14.6 14.6,14.6 8.06,0 14.6,-6.54 14.6,-14.6 0,-8.06 -6.54,-14.6 -14.6,-14.6zm1.52 15.24l0 7.94 -3.29 0 0 -7.94 -1.64 0 0 -2.74 1.64 0 0 -1.64c0,-2.23 0.93,-3.56 3.56,-3.56l2.19 0 0 2.74 -1.37 0c-1.03,0 -1.09,0.38 -1.09,1.1l-0 1.37 2.48 0 -0.29 2.74 -2.19 0z"/>
     <path class="fil0" d="M102.48 0.29c-8.06,0 -14.6,6.54 -14.6,14.6 0,8.06 6.54,14.6 14.6,14.6 8.06,0 14.6,-6.54 14.6,-14.6 0,-8.06 -6.54,-14.6 -14.6,-14.6zm-3.21 6.86c0.83,-0.04 1.1,-0.05 3.21,-0.05l-0 0c2.12,0 2.38,0.01 3.21,0.05 0.83,0.04 1.4,0.17 1.89,0.36 0.51,0.2 0.95,0.46 1.38,0.9 0.43,0.43 0.7,0.87 0.9,1.38 0.19,0.5 0.32,1.06 0.36,1.89 0.04,0.83 0.05,1.1 0.05,3.21 0,2.11 -0.01,2.38 -0.05,3.21 -0.04,0.83 -0.17,1.39 -0.36,1.89 -0.2,0.51 -0.47,0.95 -0.9,1.38 -0.43,0.43 -0.87,0.7 -1.38,0.9 -0.5,0.19 -1.06,0.32 -1.89,0.36 -0.83,0.04 -1.1,0.05 -3.21,0.05 -2.11,0 -2.38,-0.01 -3.21,-0.05 -0.83,-0.04 -1.39,-0.17 -1.89,-0.36 -0.51,-0.2 -0.95,-0.47 -1.38,-0.9 -0.43,-0.43 -0.7,-0.87 -0.9,-1.38 -0.19,-0.5 -0.32,-1.06 -0.36,-1.89 -0.04,-0.83 -0.05,-1.1 -0.05,-3.21 0,-2.11 0.01,-2.38 0.05,-3.21 0.04,-0.83 0.17,-1.39 0.36,-1.89 0.2,-0.51 0.46,-0.95 0.9,-1.38 0.43,-0.43 0.87,-0.7 1.38,-0.9 0.5,-0.19 1.06,-0.32 1.89,-0.36z"/>
     <path class="fil0" d="M101.78 8.51c0.14,0 0.28,0 0.44,0l0.26 0c2.08,0 2.32,0.01 3.15,0.05 0.76,0.03 1.17,0.16 1.45,0.27 0.36,0.14 0.62,0.31 0.9,0.58 0.27,0.27 0.44,0.53 0.58,0.9 0.11,0.27 0.23,0.69 0.27,1.45 0.04,0.82 0.05,1.07 0.05,3.15 0,2.08 -0.01,2.32 -0.05,3.15 -0.04,0.76 -0.16,1.17 -0.27,1.45 -0.14,0.36 -0.31,0.62 -0.58,0.89 -0.27,0.27 -0.53,0.44 -0.9,0.58 -0.27,0.11 -0.69,0.23 -1.45,0.27 -0.82,0.04 -1.07,0.05 -3.15,0.05 -2.08,0 -2.33,-0.01 -3.15,-0.05 -0.76,-0.04 -1.17,-0.16 -1.45,-0.27 -0.36,-0.14 -0.62,-0.31 -0.9,-0.58 -0.27,-0.27 -0.44,-0.53 -0.58,-0.89 -0.11,-0.27 -0.23,-0.69 -0.27,-1.45 -0.04,-0.82 -0.05,-1.07 -0.05,-3.15 0,-2.08 0.01,-2.32 0.05,-3.15 0.03,-0.76 0.16,-1.17 0.27,-1.45 0.14,-0.36 0.31,-0.62 0.58,-0.9 0.27,-0.27 0.53,-0.44 0.9,-0.58 0.27,-0.11 0.69,-0.23 1.45,-0.27 0.72,-0.03 1,-0.04 2.45,-0.04l0 0zm4.86 1.29c-0.52,0 -0.93,0.42 -0.93,0.93 0,0.52 0.42,0.93 0.93,0.93 0.52,0 0.93,-0.42 0.93,-0.93 0,-0.52 -0.42,-0.93 -0.93,-0.93l0 0zm-8.15 5.09c0,-2.21 1.79,-4 4,-4 2.21,0 4,1.79 4,4 0,2.21 -1.79,4 -4,4 -2.21,0 -4,-1.79 -4,-4z"/>
     <path class="fil1" d="M102.48 12.3c1.43,0 2.59,1.16 2.59,2.6 0,1.43 -1.16,2.6 -2.59,2.6 -1.43,0 -2.6,-1.16 -2.6,-2.6 0,-1.43 1.16,-2.6 2.6,-2.6z"/>
     <path class="fil0" d="M14.89 0.29c-8.06,0 -14.6,6.54 -14.6,14.6 0,8.06 6.54,14.6 14.6,14.6 8.06,0 14.6,-6.54 14.6,-14.6 0,-8.06 -6.54,-14.6 -14.6,-14.6zm-7.59 12.09l3.31 0 0 9.94 -3.31 0 0 -9.94zm3.53 -3.08c-0.02,-0.97 -0.72,-1.72 -1.85,-1.72 -1.13,0 -1.87,0.74 -1.87,1.72 0,0.95 0.72,1.72 1.83,1.72l0.02 0c1.15,0 1.87,-0.76 1.87,-1.72zm7.9 2.84c2.18,0 3.81,1.42 3.81,4.47l0 5.7 -3.31 0 0 -5.32c0,-1.34 -0.48,-2.25 -1.68,-2.25 -0.91,0 -1.46,0.61 -1.7,1.21 -0.09,0.21 -0.11,0.51 -0.11,0.81l0 5.55 -3.31 0c0,0 0.04,-9.01 0,-9.94l3.31 0 0 1.41c0.44,-0.68 1.23,-1.64 2.98,-1.64z"/>
     <path class="fil0" d="M146.28 0.29c-8.06,0 -14.6,6.54 -14.6,14.6 0,8.06 6.54,14.6 14.6,14.6 8.06,0 14.6,-6.54 14.6,-14.6 0,-8.06 -6.54,-14.6 -14.6,-14.6zm-0.41 12.37l-0.03 -0.5c-0.09,-1.31 0.71,-2.51 1.99,-2.97 0.47,-0.17 1.27,-0.19 1.79,-0.04 0.2,0.06 0.59,0.27 0.87,0.45l0.5 0.34 0.55 -0.18c0.31,-0.09 0.72,-0.25 0.9,-0.35 0.17,-0.09 0.33,-0.14 0.33,-0.11 0,0.18 -0.38,0.77 -0.69,1.1 -0.43,0.46 -0.31,0.51 0.56,0.2 0.52,-0.18 0.53,-0.18 0.43,0.02 -0.06,0.1 -0.38,0.46 -0.72,0.79 -0.57,0.57 -0.6,0.63 -0.6,1.1 0,0.73 -0.35,2.26 -0.69,3.09 -0.64,1.57 -2.02,3.19 -3.4,4 -1.94,1.14 -4.52,1.43 -6.7,0.76 -0.73,-0.23 -1.97,-0.8 -1.97,-0.91 0,-0.03 0.38,-0.07 0.84,-0.08 0.96,-0.02 1.92,-0.29 2.74,-0.76l0.55 -0.33 -0.63 -0.22c-0.9,-0.31 -1.71,-1.02 -1.91,-1.69 -0.06,-0.22 -0.04,-0.23 0.53,-0.23l0.59 -0.01 -0.5 -0.24c-0.59,-0.3 -1.13,-0.8 -1.4,-1.32 -0.19,-0.37 -0.44,-1.31 -0.37,-1.38 0.02,-0.03 0.23,0.03 0.48,0.11 0.71,0.26 0.8,0.2 0.39,-0.24 -0.77,-0.78 -1,-1.95 -0.63,-3.05l0.17 -0.49 0.67 0.67c1.38,1.35 3,2.15 4.86,2.39l0.51 0.06z"/>
     <path class="fil0" d="M58.69 0.29c-8.06,0 -14.6,6.54 -14.6,14.6 0,8.06 6.54,14.6 14.6,14.6 8.06,0 14.6,-6.54 14.6,-14.6 0,-8.06 -6.54,-14.6 -14.6,-14.6zm6.08 9.58c0.67,0.18 1.2,0.73 1.38,1.41 0.33,1.25 0.33,3.85 0.33,3.85 0,0 0,2.6 -0.33,3.85 -0.18,0.69 -0.71,1.23 -1.38,1.41 -1.21,0.33 -6.08,0.33 -6.08,0.33 0,0 -4.87,0 -6.08,-0.33 -0.67,-0.18 -1.2,-0.73 -1.38,-1.41 -0.33,-1.25 -0.33,-3.85 -0.33,-3.85 0,0 0,-2.6 0.33,-3.85 0.18,-0.69 0.71,-1.23 1.38,-1.41 1.21,-0.33 6.08,-0.33 6.08,-0.33 0,0 4.87,0 6.08,0.33z"/>
     <polygon class="fil1" points="57.23,17.81 57.23,12.95 61.12,15.38 "/>
    </g>
   </g>
  </g>
  <path class="fil2" d="M14.89 0c8.22,0 14.89,6.67 14.89,14.89 0,8.23 -6.67,14.89 -14.89,14.89 -8.22,0 -14.89,-6.67 -14.89,-14.89 0,-8.23 6.67,-14.89 14.89,-14.89z"/>
 </g>
</svg>
