<?xml version="1.0" encoding="UTF-8"?>
<!DOCTYPE svg PUBLIC "-//W3C//DTD SVG 1.1//EN" "http://www.w3.org/Graphics/SVG/1.1/DTD/svg11.dtd">
<!-- Creator: CorelDRAW 2021 (64-Bit) -->
<svg xmlns="http://www.w3.org/2000/svg" xml:space="preserve" width="0.458331in" height="0.458331in" version="1.1" style="shape-rendering:geometricPrecision; text-rendering:geometricPrecision; image-rendering:optimizeQuality; fill-rule:evenodd; clip-rule:evenodd"
viewBox="0 0 87.82 87.82"
 xmlns:xlink="http://www.w3.org/1999/xlink"
 xmlns:xodm="http://www.corel.com/coreldraw/odm/2003">
 <defs>
  <style type="text/css">
   <![CDATA[
    .fil1 {fill:#005AA5;fill-rule:nonzero}
    .fil0 {fill:#005AA5;fill-rule:nonzero;fill-opacity:0.149020}
   ]]>
  </style>
 </defs>
 <g id="Layer_x0020_1">
  <metadata id="CorelCorpID_0Corel-Layer"/>
  <path class="fil0" d="M87.82 43.91c0,-24.25 -19.66,-43.91 -43.91,-43.91 -24.25,0 -43.91,19.66 -43.91,43.91 0,24.25 19.66,43.91 43.91,43.91 24.25,0 43.91,-19.66 43.91,-43.91z"/>
  <g id="_2724476878000">
   <path class="fil1" d="M55.53 29.71c0.55,-0.67 0.45,-1.66 -0.26,-2.16 -2.58,-1.8 -5.55,-2.96 -8.68,-3.4 -3.65,-0.51 -7.36,-0.01 -10.74,1.45 -3.38,1.46 -6.29,3.82 -8.42,6.83 -1.82,2.58 -3.01,5.54 -3.47,8.65 -0.13,0.86 0.53,1.61 1.4,1.67l3.58 0.25c0.86,0.06 1.6,-0.6 1.76,-1.45 0.35,-1.88 1.11,-3.66 2.22,-5.23 1.41,-2 3.35,-3.57 5.59,-4.54 2.25,-0.97 4.72,-1.3 7.14,-0.96 1.9,0.27 3.72,0.94 5.33,1.97 0.73,0.47 1.71,0.38 2.26,-0.29l2.28 -2.78z"/>
   <path class="fil1" d="M25.39 45.58c-0.86,0.07 -1.51,0.83 -1.37,1.69 0.68,4.13 2.64,7.96 5.61,10.93 2.98,2.98 6.81,4.93 10.94,5.61 0.85,0.14 1.61,-0.51 1.69,-1.37l0.3 -3.58c0.07,-0.86 -0.57,-1.61 -1.42,-1.79 -2.55,-0.52 -4.9,-1.78 -6.75,-3.63 -1.85,-1.85 -3.11,-4.2 -3.64,-6.75 -0.17,-0.85 -0.92,-1.49 -1.79,-1.42l-3.58 0.3z"/>
   <path class="fil1" d="M45.12 62.46c0.06,0.86 0.81,1.52 1.67,1.39 3.11,-0.47 6.07,-1.66 8.64,-3.49 3,-2.13 5.36,-5.05 6.81,-8.43 1.45,-3.38 1.95,-7.1 1.43,-10.74 -0.44,-3.13 -1.62,-6.1 -3.42,-8.67 -0.5,-0.71 -1.49,-0.8 -2.16,-0.25l-2.77 2.28c-0.67,0.55 -0.76,1.53 -0.29,2.26 1.03,1.61 1.71,3.42 1.98,5.33 0.34,2.42 0.02,4.89 -0.95,7.14 -0.97,2.25 -2.53,4.19 -4.53,5.6 -1.57,1.11 -3.35,1.87 -5.23,2.23 -0.85,0.16 -1.5,0.9 -1.44,1.77l0.25 3.58z"/>
  </g>
  <g id="_2724476880928">
   <path class="fil1" d="M35.93 42.26c0,-0.74 0.51,-1.34 1.14,-1.34l1.67 0c0.63,0 1.14,0.6 1.14,1.34l0 7.3c0,0.74 -0.51,1.34 -1.14,1.34l-1.67 0c-0.63,0 -1.14,-0.6 -1.14,-1.34l0 -7.3z"/>
   <path class="fil1" d="M41.94 38.27c0,-0.74 0.51,-1.34 1.14,-1.34l1.67 0c0.63,0 1.14,0.6 1.14,1.34l0 11.29c0,0.74 -0.51,1.34 -1.14,1.34l-1.67 0c-0.63,0 -1.14,-0.6 -1.14,-1.34l0 -11.29z"/>
   <path class="fil1" d="M47.95 45.37c0,-0.74 0.51,-1.34 1.14,-1.34l1.67 0c0.63,0 1.14,0.6 1.14,1.34l0 4.18c0,0.74 -0.51,1.34 -1.14,1.34l-1.67 0c-0.63,0 -1.14,-0.6 -1.14,-1.34l0 -4.18z"/>
  </g>
 </g>
</svg>
