<?xml version="1.0" encoding="UTF-8"?>
<!DOCTYPE svg PUBLIC "-//W3C//DTD SVG 1.1//EN" "http://www.w3.org/Graphics/SVG/1.1/DTD/svg11.dtd">
<!-- Creator: CorelDRAW 2021 (64-Bit) -->
<svg xmlns="http://www.w3.org/2000/svg" xml:space="preserve" width="0.254969in" height="0.255031in" version="1.1" style="shape-rendering:geometricPrecision; text-rendering:geometricPrecision; image-rendering:optimizeQuality; fill-rule:evenodd; clip-rule:evenodd"
viewBox="0 0 971.88 972.12"
 xmlns:xlink="http://www.w3.org/1999/xlink"
 xmlns:xodm="http://www.corel.com/coreldraw/odm/2003">
 <defs>
  <style type="text/css">
   <![CDATA[
    .fil2 {fill:none}
    .fil0 {fill:#005AA5}
    .fil1 {fill:#005AA5;fill-rule:nonzero}
   ]]>
  </style>
   <clipPath id="id0">
    <path d="M485.94 0c268.38,0 485.94,217.62 485.94,486.06 0,268.44 -217.56,486.06 -485.94,486.06 -268.38,0 -485.94,-217.62 -485.94,-486.06 0,-268.44 217.56,-486.06 485.94,-486.06z"/>
   </clipPath>
 </defs>
 <g id="Layer_x0020_1">
  <metadata id="CorelCorpID_0Corel-Layer"/>
  <g>
  </g>
  <g style="clip-path:url(#id0)">
   <g>
    <g id="_2724476999776">
     <path class="fil0" d="M-5231.72 3.38c-263.15,0 -476.47,213.32 -476.47,476.47 0,263.15 213.32,476.47 476.47,476.47 263.15,0 476.47,-213.32 476.47,-476.47 0,-263.15 -213.32,-476.47 -476.47,-476.47zm49.66 497.41l0 259.22 -107.25 0 0 -259.22 -53.57 0 0 -89.32 53.57 0 0 -53.63c0,-72.87 30.25,-116.21 116.23,-116.21l71.57 0 0 89.34 -44.74 0c-33.47,0 -35.69,12.49 -35.69,35.79l-0.12 44.71 81.04 0 -9.48 89.34 -71.55 0z"/>
     <path class="fil0" d="M-943.47 3.38c-263.13,0 -476.47,213.32 -476.47,476.47 0,263.15 213.34,476.47 476.47,476.47 263.13,0 476.47,-213.32 476.47,-476.47 0,-263.15 -213.34,-476.47 -476.47,-476.47zm-104.78 223.89c27.12,-1.23 35.78,-1.53 104.78,-1.53l-0.08 0c69.05,0 77.66,0.3 104.78,1.53 27.04,1.23 45.55,5.52 61.74,11.81 16.72,6.48 30.85,15.16 44.99,29.29 14.14,14.12 22.83,28.3 29.34,45.02 6.24,16.16 10.52,34.62 11.8,61.68 1.23,27.1 1.55,35.76 1.55,104.78 0,69.02 -0.32,77.66 -1.55,104.76 -1.28,27.04 -5.55,45.52 -11.8,61.68 -6.51,16.7 -15.2,30.88 -29.34,45.01 -14.09,14.14 -28.27,22.84 -44.99,29.34 -16.16,6.27 -34.65,10.56 -61.69,11.8 -27.12,1.23 -35.75,1.55 -104.75,1.55 -69,0 -77.66,-0.32 -104.78,-1.55 -27.04,-1.23 -45.5,-5.52 -61.71,-11.8 -16.67,-6.5 -30.85,-15.2 -44.99,-29.34 -14.14,-14.12 -22.83,-28.3 -29.29,-45.01 -6.27,-16.16 -10.56,-34.64 -11.8,-61.68 -1.23,-27.12 -1.55,-35.75 -1.55,-104.76 0,-69.02 0.32,-77.68 1.5,-104.78 1.23,-27.04 5.52,-45.52 11.84,-61.68 6.51,-16.72 15.16,-30.9 29.29,-45.02 14.14,-14.12 28.32,-22.81 45.04,-29.29 16.16,-6.29 34.62,-10.58 61.66,-11.81z"/>
     <path class="fil0" d="M-966.27 271.52c4.46,0 9.21,0 14.33,0l8.51 0c67.82,0 75.88,0.26 102.68,1.47 24.78,1.13 38.19,5.27 47.17,8.75 11.87,4.61 20.33,10.11 29.22,19 8.9,8.9 14.38,17.38 18.98,29.23 3.5,8.94 7.62,22.39 8.78,47.17 1.23,26.79 1.47,34.83 1.47,102.66 0,67.82 -0.24,75.86 -1.47,102.65 -1.16,24.78 -5.28,38.22 -8.78,47.17 -4.61,11.86 -10.08,20.3 -18.98,29.2 -8.88,8.88 -17.35,14.39 -29.22,19 -8.93,3.5 -22.39,7.62 -47.17,8.76 -26.8,1.2 -34.86,1.47 -102.68,1.47 -67.86,0 -75.92,-0.27 -102.72,-1.47 -24.78,-1.16 -38.19,-5.3 -47.17,-8.76 -11.87,-4.61 -20.33,-10.11 -29.23,-19.01 -8.88,-8.9 -14.41,-17.35 -19.01,-29.2 -3.45,-8.94 -7.62,-22.39 -8.73,-47.17 -1.23,-26.8 -1.47,-34.85 -1.47,-102.71 0,-67.86 0.24,-75.86 1.47,-102.65 1.11,-24.78 5.28,-38.22 8.73,-47.18 4.61,-11.86 10.13,-20.33 19.01,-29.22 8.9,-8.9 17.36,-14.41 29.23,-19.03 8.97,-3.5 22.39,-7.62 47.17,-8.76 23.47,-1.05 32.55,-1.37 79.88,-1.43l0 0.06zm158.47 42.2c-16.84,0 -30.49,13.64 -30.49,30.48 0,16.84 13.66,30.49 30.49,30.49 16.84,0 30.49,-13.66 30.49,-30.49 0,-16.82 -13.66,-30.49 -30.49,-30.49l0 0.02zm-266.15 166.13c0,-72.06 58.41,-130.5 130.47,-130.5 72.11,0 130.52,58.44 130.52,130.5 0,72.06 -58.41,130.47 -130.47,130.47 -72.11,0 -130.52,-58.41 -130.52,-130.47z"/>
     <path class="fil1" d="M-943.43 395.15c46.76,0 84.68,37.92 84.68,84.7 0,46.78 -37.92,84.71 -84.68,84.71 -46.82,0 -84.74,-37.94 -84.74,-84.71 0,-46.78 37.92,-84.7 84.74,-84.7z"/>
     <path class="fil0" d="M-3802.3 3.38c-263.15,0 -476.47,213.32 -476.47,476.47 0,263.15 213.32,476.47 476.47,476.47 263.15,0 476.47,-213.32 476.47,-476.47 0,-263.15 -213.32,-476.47 -476.47,-476.47zm-247.74 394.64l107.98 0 0 324.44 -107.98 0 0 -324.44zm115.09 -100.37c-0.71,-31.81 -23.46,-56.04 -60.39,-56.04 -36.93,0 -61.09,24.22 -61.09,56.04 0,31.15 23.44,56.08 59.7,56.08l0.69 0c37.64,0 61.09,-24.93 61.09,-56.08zm257.98 92.74c71.06,0 124.32,46.39 124.32,146.03l0 186.03 -107.98 0 0 -173.57c0,-43.61 -15.62,-73.35 -54.72,-73.35 -29.83,0 -47.6,20.05 -55.41,39.42 -2.85,6.95 -3.56,16.61 -3.56,26.31l0 181.19 -107.99 0c0,0 1.43,-293.99 0,-324.44l107.99 0 0 45.95c14.33,-22.09 40.01,-53.57 97.34,-53.57z"/>
     <path class="fil0" d="M485.94 3.38c-263.13,0 -476.47,213.32 -476.47,476.47 0,263.15 213.34,476.47 476.47,476.47 263.13,0 476.47,-213.32 476.47,-476.47 0,-263.15 -213.34,-476.47 -476.47,-476.47zm-13.27 403.76l-0.99 -16.48c-3.02,-42.72 23.31,-81.76 64.97,-96.9 15.32,-5.39 41.33,-6.06 58.32,-1.35 6.68,2.03 19.34,8.75 28.36,14.81l16.31 11.11 17.99 -5.73c9.99,-3.02 23.34,-8.07 29.34,-11.44 5.67,-3.03 10.68,-4.71 10.68,-3.71 0,5.73 -12.35,25.24 -22.68,36 -14.02,15.14 -10.01,16.49 18.31,6.39 17.03,-5.72 17.35,-5.72 14.02,0.68 -2,3.36 -12.35,15.14 -23.35,25.92 -18.67,18.5 -19.66,20.51 -19.66,36 0,23.89 -11.32,73.68 -22.68,100.94 -20.96,51.14 -65.99,103.97 -110.98,130.55 -63.33,37.35 -147.62,46.78 -218.62,24.9 -23.67,-7.4 -64.32,-26.25 -64.32,-29.61 0,-1.01 12.35,-2.36 27.31,-2.69 31.33,-0.68 62.65,-9.42 89.34,-24.9l17.99 -10.78 -20.65 -7.05c-29.34,-10.1 -55.66,-33.32 -62.34,-55.18 -1.98,-7.07 -1.35,-7.41 17.35,-7.41l19.3 -0.33 -16.31 -7.74c-19.34,-9.75 -37.01,-26.25 -45.67,-43.07 -6.3,-12.11 -14.33,-42.72 -11.99,-45.08 0.68,-1.01 7.67,1.01 15.65,3.71 23.02,8.4 26.01,6.39 12.67,-7.74 -24.99,-25.57 -32.64,-63.6 -20.65,-99.6l5.67 -16.15 22 21.87c44.99,44.09 97.95,70.32 158.62,78.07l16.67 2.01z"/>
     <path class="fil0" d="M-2372.89 3.38c-263.15,0 -476.47,213.32 -476.47,476.47 0,263.15 213.32,476.47 476.47,476.47 263.15,0 476.47,-213.32 476.47,-476.47 0,-263.15 -213.32,-476.47 -476.47,-476.47zm198.56 312.67c21.87,6 39.09,23.68 44.93,46.13 10.62,40.7 10.62,125.61 10.62,125.61 0,0 0,84.91 -10.62,125.61 -5.84,22.45 -23.07,40.13 -44.93,46.13 -39.63,10.91 -198.56,10.91 -198.56,10.91 0,0 -158.94,0 -198.57,-10.91 -21.87,-6 -39.09,-23.68 -44.93,-46.13 -10.62,-40.7 -10.62,-125.61 -10.62,-125.61 0,0 0,-84.91 10.62,-125.61 5.84,-22.45 23.07,-40.13 44.93,-46.13 39.63,-10.91 198.57,-10.91 198.57,-10.91 0,0 158.92,0 198.56,10.91z"/>
     <polygon class="fil1" points="-2420.54,575.14 -2420.54,416.32 -2293.47,495.74 "/>
    </g>
   </g>
  </g>
  <path class="fil2" d="M485.94 0c268.38,0 485.94,217.62 485.94,486.06 0,268.44 -217.56,486.06 -485.94,486.06 -268.38,0 -485.94,-217.62 -485.94,-486.06 0,-268.44 217.56,-486.06 485.94,-486.06z"/>
 </g>
</svg>
