<?xml version="1.0" encoding="UTF-8"?>
<!DOCTYPE svg PUBLIC "-//W3C//DTD SVG 1.1//EN" "http://www.w3.org/Graphics/SVG/1.1/DTD/svg11.dtd">
<!-- Creator: CorelDRAW 2021 (64-Bit) -->
<svg xmlns="http://www.w3.org/2000/svg" xml:space="preserve" width="0.254969in" height="0.255031in" version="1.1" style="shape-rendering:geometricPrecision; text-rendering:geometricPrecision; image-rendering:optimizeQuality; fill-rule:evenodd; clip-rule:evenodd"
viewBox="0 0 45.36 45.37"
 xmlns:xlink="http://www.w3.org/1999/xlink"
 xmlns:xodm="http://www.corel.com/coreldraw/odm/2003">
 <defs>
  <style type="text/css">
   <![CDATA[
    .fil2 {fill:none}
    .fil0 {fill:#005AA5}
    .fil1 {fill:#005AA5;fill-rule:nonzero}
   ]]>
  </style>
   <clipPath id="id0">
    <path d="M22.68 0c12.53,0 22.68,10.16 22.68,22.69 0,12.53 -10.15,22.69 -22.68,22.69 -12.53,0 -22.68,-10.16 -22.68,-22.69 0,-12.53 10.15,-22.69 22.68,-22.69z"/>
   </clipPath>
 </defs>
 <g id="Layer_x0020_1">
  <metadata id="CorelCorpID_0Corel-Layer"/>
  <g>
  </g>
  <g style="clip-path:url(#id0)">
   <g>
    <g id="_2724476429584">
     <path class="fil0" d="M-110.75 0.45c-12.28,0 -22.24,9.96 -22.24,22.24 0,12.28 9.96,22.24 22.24,22.24 12.28,0 22.24,-9.96 22.24,-22.24 0,-12.28 -9.96,-22.24 -22.24,-22.24zm2.32 23.22l0 12.1 -5.01 0 0 -12.1 -2.5 0 0 -4.17 2.5 0 0 -2.5c0,-3.4 1.41,-5.42 5.42,-5.42l3.34 0 0 4.17 -2.09 0c-1.56,0 -1.67,0.58 -1.67,1.67l-0.01 2.09 3.78 0 -0.44 4.17 -3.34 0z"/>
     <path class="fil0" d="M89.4 0.45c-12.28,0 -22.24,9.96 -22.24,22.24 0,12.28 9.96,22.24 22.24,22.24 12.28,0 22.24,-9.96 22.24,-22.24 0,-12.28 -9.96,-22.24 -22.24,-22.24zm-4.89 10.45c1.27,-0.06 1.67,-0.07 4.89,-0.07l-0 0c3.22,0 3.62,0.01 4.89,0.07 1.26,0.06 2.13,0.26 2.88,0.55 0.78,0.3 1.44,0.71 2.1,1.37 0.66,0.66 1.07,1.32 1.37,2.1 0.29,0.75 0.49,1.62 0.55,2.88 0.06,1.27 0.07,1.67 0.07,4.89 0,3.22 -0.01,3.62 -0.07,4.89 -0.06,1.26 -0.26,2.12 -0.55,2.88 -0.3,0.78 -0.71,1.44 -1.37,2.1 -0.66,0.66 -1.32,1.07 -2.1,1.37 -0.75,0.29 -1.62,0.49 -2.88,0.55 -1.27,0.06 -1.67,0.07 -4.89,0.07 -3.22,0 -3.62,-0.01 -4.89,-0.07 -1.26,-0.06 -2.12,-0.26 -2.88,-0.55 -0.78,-0.3 -1.44,-0.71 -2.1,-1.37 -0.66,-0.66 -1.07,-1.32 -1.37,-2.1 -0.29,-0.75 -0.49,-1.62 -0.55,-2.88 -0.06,-1.27 -0.07,-1.67 -0.07,-4.89 0,-3.22 0.01,-3.63 0.07,-4.89 0.06,-1.26 0.26,-2.12 0.55,-2.88 0.3,-0.78 0.71,-1.44 1.37,-2.1 0.66,-0.66 1.32,-1.06 2.1,-1.37 0.75,-0.29 1.62,-0.49 2.88,-0.55z"/>
     <path class="fil0" d="M88.33 12.96c0.21,0 0.43,0 0.67,0l0.4 0c3.17,0 3.54,0.01 4.79,0.07 1.16,0.05 1.78,0.25 2.2,0.41 0.55,0.22 0.95,0.47 1.36,0.89 0.42,0.42 0.67,0.81 0.89,1.36 0.16,0.42 0.36,1.05 0.41,2.2 0.06,1.25 0.07,1.63 0.07,4.79 0,3.17 -0.01,3.54 -0.07,4.79 -0.05,1.16 -0.25,1.78 -0.41,2.2 -0.22,0.55 -0.47,0.95 -0.89,1.36 -0.41,0.41 -0.81,0.67 -1.36,0.89 -0.42,0.16 -1.05,0.36 -2.2,0.41 -1.25,0.06 -1.63,0.07 -4.79,0.07 -3.17,0 -3.54,-0.01 -4.79,-0.07 -1.16,-0.05 -1.78,-0.25 -2.2,-0.41 -0.55,-0.22 -0.95,-0.47 -1.36,-0.89 -0.41,-0.42 -0.67,-0.81 -0.89,-1.36 -0.16,-0.42 -0.36,-1.05 -0.41,-2.2 -0.06,-1.25 -0.07,-1.63 -0.07,-4.79 0,-3.17 0.01,-3.54 0.07,-4.79 0.05,-1.16 0.25,-1.78 0.41,-2.2 0.22,-0.55 0.47,-0.95 0.89,-1.36 0.42,-0.42 0.81,-0.67 1.36,-0.89 0.42,-0.16 1.05,-0.36 2.2,-0.41 1.1,-0.05 1.52,-0.06 3.73,-0.07l0 0zm7.4 1.97c-0.79,0 -1.42,0.64 -1.42,1.42 0,0.79 0.64,1.42 1.42,1.42 0.79,0 1.42,-0.64 1.42,-1.42 0,-0.79 -0.64,-1.42 -1.42,-1.42l0 0zm-12.42 7.75c0,-3.36 2.73,-6.09 6.09,-6.09 3.37,0 6.09,2.73 6.09,6.09 0,3.36 -2.73,6.09 -6.09,6.09 -3.37,0 -6.09,-2.73 -6.09,-6.09z"/>
     <path class="fil1" d="M89.4 18.73c2.18,0 3.95,1.77 3.95,3.95 0,2.18 -1.77,3.95 -3.95,3.95 -2.19,0 -3.96,-1.77 -3.96,-3.95 0,-2.18 1.77,-3.95 3.96,-3.95z"/>
     <path class="fil0" d="M-44.04 0.45c-12.28,0 -22.24,9.96 -22.24,22.24 0,12.28 9.96,22.24 22.24,22.24 12.28,0 22.24,-9.96 22.24,-22.24 0,-12.28 -9.96,-22.24 -22.24,-22.24zm-11.56 18.42l5.04 0 0 15.14 -5.04 0 0 -15.14zm5.37 -4.68c-0.03,-1.48 -1.09,-2.62 -2.82,-2.62 -1.72,0 -2.85,1.13 -2.85,2.62 0,1.45 1.09,2.62 2.79,2.62l0.03 0c1.76,0 2.85,-1.16 2.85,-2.62zm12.04 4.33c3.32,0 5.8,2.17 5.8,6.82l0 8.68 -5.04 0 0 -8.1c0,-2.04 -0.73,-3.42 -2.55,-3.42 -1.39,0 -2.22,0.94 -2.59,1.84 -0.13,0.32 -0.17,0.78 -0.17,1.23l0 8.46 -5.04 0c0,0 0.07,-13.72 0,-15.14l5.04 0 0 2.14c0.67,-1.03 1.87,-2.5 4.54,-2.5z"/>
     <path class="fil0" d="M156.12 0.45c-12.28,0 -22.24,9.96 -22.24,22.24 0,12.28 9.96,22.24 22.24,22.24 12.28,0 22.24,-9.96 22.24,-22.24 0,-12.28 -9.96,-22.24 -22.24,-22.24zm-0.62 18.85l-0.05 -0.77c-0.14,-1.99 1.09,-3.82 3.03,-4.52 0.72,-0.25 1.93,-0.28 2.72,-0.06 0.31,0.09 0.9,0.41 1.32,0.69l0.76 0.52 0.84 -0.27c0.47,-0.14 1.09,-0.38 1.37,-0.53 0.26,-0.14 0.5,-0.22 0.5,-0.17 0,0.27 -0.58,1.18 -1.06,1.68 -0.65,0.71 -0.47,0.77 0.85,0.3 0.8,-0.27 0.81,-0.27 0.65,0.03 -0.09,0.16 -0.58,0.71 -1.09,1.21 -0.87,0.86 -0.92,0.96 -0.92,1.68 0,1.12 -0.53,3.44 -1.06,4.71 -0.98,2.39 -3.08,4.85 -5.18,6.09 -2.96,1.74 -6.89,2.18 -10.2,1.16 -1.1,-0.35 -3,-1.23 -3,-1.38 0,-0.05 0.58,-0.11 1.27,-0.13 1.46,-0.03 2.92,-0.44 4.17,-1.16l0.84 -0.5 -0.96 -0.33c-1.37,-0.47 -2.6,-1.55 -2.91,-2.58 -0.09,-0.33 -0.06,-0.35 0.81,-0.35l0.9 -0.02 -0.76 -0.36c-0.9,-0.46 -1.73,-1.23 -2.13,-2.01 -0.29,-0.57 -0.67,-1.99 -0.56,-2.1 0.03,-0.05 0.36,0.05 0.73,0.17 1.07,0.39 1.21,0.3 0.59,-0.36 -1.17,-1.19 -1.52,-2.97 -0.96,-4.65l0.26 -0.75 1.03 1.02c2.1,2.06 4.57,3.28 7.4,3.64l0.78 0.09z"/>
     <path class="fil0" d="M22.68 0.45c-12.28,0 -22.24,9.96 -22.24,22.24 0,12.28 9.96,22.24 22.24,22.24 12.28,0 22.24,-9.96 22.24,-22.24 0,-12.28 -9.96,-22.24 -22.24,-22.24zm9.27 14.59c1.02,0.28 1.82,1.11 2.1,2.15 0.5,1.9 0.5,5.86 0.5,5.86 0,0 0,3.96 -0.5,5.86 -0.27,1.05 -1.08,1.87 -2.1,2.15 -1.85,0.51 -9.27,0.51 -9.27,0.51 0,0 -7.42,0 -9.27,-0.51 -1.02,-0.28 -1.82,-1.11 -2.1,-2.15 -0.5,-1.9 -0.5,-5.86 -0.5,-5.86 0,0 0,-3.96 0.5,-5.86 0.27,-1.05 1.08,-1.87 2.1,-2.15 1.85,-0.51 9.27,-0.51 9.27,-0.51 0,0 7.42,0 9.27,0.51z"/>
     <polygon class="fil1" points="20.46,27.13 20.46,19.72 26.39,23.43 "/>
    </g>
   </g>
  </g>
  <path class="fil2" d="M22.68 0c12.53,0 22.68,10.16 22.68,22.69 0,12.53 -10.15,22.69 -22.68,22.69 -12.53,0 -22.68,-10.16 -22.68,-22.69 0,-12.53 10.15,-22.69 22.68,-22.69z"/>
 </g>
</svg>
